<svg width="285" height="57" viewBox="0 0 285 57" fill="none" xmlns="http://www.w3.org/2000/svg">
<path d="M50.2528 1.4257H49.311V2.36522H50.2528V1.4257Z" fill="#AFACAD"/>
<path d="M69.8275 13.1067H68.8857V14.0462H69.8275V13.1067Z" fill="#AFACAD"/>
<path d="M80.3285 12.0998C80.56 11.9896 80.7465 11.8323 80.8881 11.6233C81.0297 11.4165 81.1286 11.1647 81.1871 10.8725C81.2455 10.5781 81.2747 10.2477 81.2747 9.88133V3.30473H80.333V9.88133C80.333 10.1466 80.3195 10.3713 80.2925 10.5556C80.2655 10.7399 80.2183 10.8883 80.1509 11.0029C80.0835 11.1153 79.9936 11.1984 79.8812 11.2501C79.7665 11.3018 79.6204 11.3266 79.4406 11.3266C79.3552 11.3266 79.2788 11.3221 79.2181 11.3153C79.1552 11.3086 79.0698 11.2884 78.9596 11.2569L78.7124 12.1604C78.9709 12.2324 79.2271 12.2661 79.4766 12.2661C79.8115 12.2638 80.097 12.2099 80.3285 12.0998Z" fill="#AFACAD"/>
<path d="M77.0918 1.63923H75.7994V1.42121C75.7994 1.30208 75.8241 1.20993 75.8758 1.14475C75.9185 1.0908 76.0197 1.06383 76.1658 1.06383H76.8131V0.409767H76.15C75.7904 0.409767 75.5095 0.504168 75.3207 0.690722C75.1296 0.877277 75.033 1.18296 75.033 1.59427V2.36072H77.094V1.63923H77.0918Z" fill="#AFACAD"/>
<path d="M67.944 13.1067H67.0022V14.0462H67.944V13.1067Z" fill="#AFACAD"/>
<path d="M52.1363 1.4257H51.1946V2.36522H52.1363V1.4257Z" fill="#AFACAD"/>
<path d="M72.8505 8.93507C73.2079 9.18906 73.6215 9.37786 74.0912 9.49923C74.561 9.62061 75.06 9.68129 75.5859 9.68129H75.8354L76.1523 9.01824V9.95101C76.1523 10.4432 76.0107 10.7961 75.7298 11.0074C75.4466 11.2187 75.051 11.3243 74.5408 11.3243C74.2508 11.3243 73.9901 11.2973 73.7586 11.2412C73.5271 11.1872 73.2618 11.0928 72.9652 10.9602L72.6707 11.8638C73.0303 11.9964 73.3518 12.0975 73.6305 12.1627C73.9092 12.2301 74.1901 12.2616 74.4711 12.2616C75.3881 12.2616 76.0557 12.0436 76.4715 11.6098C76.8873 11.1737 77.0941 10.5893 77.0941 9.85436V3.30473H75.5882C75.0083 3.30473 74.4778 3.38789 73.9991 3.55197C73.5203 3.71605 73.1113 3.94081 72.7696 4.22626C72.428 4.51171 72.1628 4.85336 71.9762 5.24894C71.7874 5.64453 71.693 6.07383 71.693 6.53459C71.693 7.08976 71.7964 7.56626 72.0054 7.96184C72.21 8.35518 72.4932 8.68109 72.8505 8.93507ZM72.8505 5.60632C72.9944 5.32536 73.1877 5.08486 73.4259 4.88482C73.6642 4.68478 73.9384 4.53194 74.2441 4.42181C74.5408 4.31617 74.8487 4.26223 75.1679 4.25998V4.25773H76.6895L76.1523 4.5252V8.74402H75.1993C74.8464 8.74402 74.516 8.69458 74.2059 8.59568C73.8957 8.49903 73.6237 8.35518 73.3877 8.16638C73.1517 7.97758 72.9674 7.74832 72.8348 7.47411C72.7022 7.19989 72.6348 6.88747 72.6348 6.53459C72.6325 6.19745 72.7044 5.88727 72.8505 5.60632Z" fill="#AFACAD"/>
<path d="M49.5673 12.1335H51.5227V11.43C51.5407 11.4637 51.5609 11.4974 51.5811 11.5266C51.7227 11.7334 51.9093 11.893 52.1408 12.0031C52.3723 12.1132 52.6555 12.1672 52.9927 12.1672H70.1534V3.30473H69.2116V11.2299H68.2339H53.0264C52.8466 11.2299 52.6982 11.2052 52.5858 11.1535C52.4735 11.1018 52.3813 11.0209 52.3161 10.9063C52.2509 10.7916 52.2037 10.6433 52.1745 10.459C52.1475 10.2747 52.1341 10.0499 52.1341 9.78468V3.30473H49.5897C46.987 3.30473 45.2158 5.36582 45.2158 7.7191V7.74382C45.2181 10.0971 46.9645 12.1335 49.5673 12.1335ZM46.2205 7.69438C46.2205 5.75466 47.6141 4.1948 49.5673 4.1948H51.7699L51.1923 4.4825V9.78468C51.1923 10.1533 51.2215 10.4837 51.28 10.7759C51.3137 10.9467 51.3631 11.1018 51.4261 11.2434H49.5897C47.6343 11.2434 46.2183 9.65881 46.2183 7.7191V7.69438H46.2205Z" fill="#AFACAD"/>
<path d="M40.5092 9.80043L40.9205 10.8838L34.9418 3.2935H34.009V12.1155H34.98V5.46697L34.4271 4.18132L40.6868 12.1155H41.4824V3.2935H40.5092V9.80043Z" fill="#AFACAD"/>
<path d="M53.9142 26.2082L59.34 21.0364V17.4896H44.8382V21.5286H52.2734L55.0313 19.7575L48.1467 26.669L48.884 29.6673H50.8462C53.4826 29.6673 55.047 30.6473 55.047 32.3915V32.4521C55.047 34.0435 53.7906 35.0527 52.0127 35.0527C49.837 35.0527 48.3041 34.1356 46.8319 32.4814L43.5818 35.5719C45.4204 37.7453 48.0883 39.2737 51.952 39.2737C56.735 39.2737 59.6771 36.3046 59.6771 32.2656V32.2049C59.6794 28.2288 56.8271 26.6982 53.9142 26.2082Z" fill="#AFACAD"/>
<path d="M27.8819 3.14291C25.1938 3.14291 23.3619 5.27142 23.3619 7.70562V7.73034C23.3619 10.1623 25.1668 12.2661 27.8572 12.2661C30.5476 12.2661 32.3772 10.1376 32.3772 7.70562V7.68089C32.375 5.2467 30.5701 3.14291 27.8819 3.14291ZM31.3411 7.73034C31.3411 9.73299 29.9026 11.3468 27.8819 11.3468C25.8613 11.3468 24.3981 9.70827 24.3981 7.70562V7.68089C24.3981 5.67825 25.8388 4.06444 27.8572 4.06444C29.8779 4.06444 31.3411 5.70297 31.3411 7.70562V7.73034Z" fill="#AFACAD"/>
<path d="M72.3313 17.121C65.7097 17.121 60.8953 22.1085 60.8953 28.1974V28.2581C60.8953 34.3469 65.6468 39.2737 72.2683 39.2737C78.8899 39.2737 83.7043 34.2862 83.7043 28.1974V28.1367C83.7066 22.0478 78.9528 17.121 72.3313 17.121ZM78.7708 28.2581C78.7708 31.9307 76.1343 34.9291 72.3313 34.9291C68.5305 34.9291 65.8311 31.87 65.8311 28.1974V28.1367C65.8311 24.464 68.4676 21.4657 72.2683 21.4657C76.0691 21.4657 78.7685 24.5247 78.7685 28.1974V28.2581H78.7708Z" fill="#AFACAD"/>
<path d="M21.6403 3.2935H20.6423V12.1132H21.6403V3.2935Z" fill="#AFACAD"/>
<path d="M4.62106 36.4597L5.53136 35.7584L10.2222 32.1442C14.0229 29.2065 15.8638 27.4332 15.8638 23.8527V23.792C15.8638 19.7822 12.9216 17.1817 8.47577 17.1817C4.64354 17.1817 2.58919 18.7415 0.474164 21.6185L3.78494 24.2797C5.37852 22.322 6.51358 21.405 8.17009 21.405C9.85582 21.405 11.0516 22.385 11.0516 24.1898C11.0516 25.9632 10.0087 27.1275 7.34296 29.3302L0.199951 35.174V38.9074H16.0818V34.8369H7.89813L4.62106 36.4597Z" fill="#AFACAD"/>
<path d="M4.68641 12.1784L8.48492 3.2935H7.41279L4.40994 10.5242L4.50434 11.4951L4.25711 10.8928L1.65658 4.60837L1.11265 3.2935H0.00231934L3.80308 12.1784H4.68641Z" fill="#AFACAD"/>
<path d="M10.8382 3.2935H9.84021V12.1132H10.8382V3.2935Z" fill="#AFACAD"/>
<path d="M16.12 7.22461C14.1758 6.8088 13.7218 6.34354 13.7218 5.51191V5.48718C13.7218 4.69377 14.4545 4.06443 15.6031 4.06443C16.5111 4.06443 17.3338 4.35437 18.1542 5.02192L18.734 4.25323C17.8372 3.53398 16.9157 3.16986 15.6278 3.16986C13.9488 3.16986 12.7239 4.19029 12.7239 5.57709V5.60181C12.7239 7.05154 13.6589 7.70561 15.6907 8.14839C17.5473 8.53948 17.9878 9.00474 17.9878 9.82513V9.84986C17.9878 10.7197 17.2057 11.349 16.0189 11.349C14.7939 11.349 13.9106 10.9332 12.9891 10.1016L12.371 10.8321C13.4319 11.7783 14.5804 12.2436 15.9807 12.2436C17.7361 12.2436 18.997 11.2614 18.997 9.74871V9.72399C18.997 8.37316 18.089 7.65391 16.12 7.22461Z" fill="#AFACAD"/>
<path d="M28.9046 15.7117L29.9925 16.7524L28.9496 17.838L27.8617 16.7973L28.9046 15.7117Z" fill="#28316F"/>
<path d="M31.3928 16.7973L32.4784 17.838L33.5213 16.7524L32.4357 15.7117L31.3928 16.7973Z" fill="#B4B1B3"/>
<path d="M29.8622 18.1639L30.7095 18.9753L31.5209 18.1302L30.6736 17.3188L29.8622 18.1639Z" fill="#D5D505"/>
<path d="M32.9662 18.6269L33.8113 19.4383L34.6227 18.5932L33.7776 17.784L32.9662 18.6269Z" fill="#75B12F"/>
<path d="M28.4777 19.454L29.325 20.2654L30.1364 19.4203L29.2913 18.6112L28.4777 19.454Z" fill="#D5D505"/>
<path d="M31.3187 19.5529L32.1638 20.3643L32.9752 19.5192L32.1301 18.7078L31.3187 19.5529Z" fill="#29B0BA"/>
<path d="M30.2083 20.5239L30.8016 21.0948L31.3748 20.5014L30.7792 19.9305L30.2083 20.5239Z" fill="#75B12F"/>
<path d="M32.4536 20.9734L33.047 21.5421L33.6201 20.9487L33.0245 20.3778L32.4536 20.9734Z" fill="#5AAC4C"/>
<path d="M39.2027 16.115L37.3567 16.4534L37.6947 18.2972L39.5407 17.9588L39.2027 16.115Z" fill="#2983C6"/>
<path d="M36.4204 16.9521L34.9392 17.2233L35.21 18.7023L36.6912 18.4311L36.4204 16.9521Z" fill="#213466"/>
<path d="M39.292 19.0161L37.8108 19.2878L38.0821 20.7668L39.5633 20.4951L39.292 19.0161Z" fill="#29B0BA"/>
<path d="M36.9172 19.2899L35.7632 19.5013L35.9742 20.6532L37.1282 20.4417L36.9172 19.2899Z" fill="#D5D505"/>
<path d="M39.1626 21.4768L38.0085 21.6882L38.2196 22.84L39.3736 22.6286L39.1626 21.4768Z" fill="#B4B1B3"/>
<path d="M35.1888 19.7597L34.0348 19.9711L34.2458 21.1229L35.3998 20.9115L35.1888 19.7597Z" fill="#29B0BA"/>
<path d="M37.2837 21.2678L36.1296 21.4792L36.3407 22.6311L37.4947 22.4196L37.2837 21.2678Z" fill="#75B12F"/>
<path d="M35.4718 21.4722L34.6604 21.6209L34.8087 22.43L35.6201 22.2813L35.4718 21.4722Z" fill="#B4B1B3"/>
<path d="M37.0346 23.1467L36.2231 23.295L36.3711 24.1042L37.1825 23.9559L37.0346 23.1467Z" fill="#5AAC4C"/>
<path d="M42.849 22.4906L42.0421 24.1831L43.7368 24.9877L44.5437 23.2975L42.849 22.4906Z" fill="#28316F"/>
<path d="M40.4419 21.7084L39.7946 23.066L41.1544 23.7133L41.8017 22.3557L40.4419 21.7084Z" fill="#29B0BA"/>
<path d="M41.5543 25.0529L40.907 26.4105L42.2691 27.0556L42.9164 25.7002L41.5543 25.0529Z" fill="#75B12F"/>
<path d="M39.772 24.0347L39.2686 25.0934L40.3272 25.5946L40.8329 24.5382L39.772 24.0347Z" fill="#D5D505"/>
<path d="M40.3114 27.1207L39.8057 28.1771L40.8643 28.6806L41.37 27.622L40.3114 27.1207Z" fill="#D5D505"/>
<path d="M38.0953 23.4054L37.5918 24.464L38.6504 24.9653L39.1562 23.9089L38.0953 23.4054Z" fill="#2983C6"/>
<path d="M38.9112 25.8508L38.4055 26.9095L39.4664 27.4107L39.9699 26.3543L38.9112 25.8508Z" fill="#B4B1B3"/>
<path d="M37.6366 25.1069L37.2815 25.8508L38.0277 26.2037L38.3806 25.4597L37.6366 25.1069Z" fill="#75B12F"/>
<path d="M37.922 27.3712L37.5685 28.1141L38.3134 28.4685L38.6668 27.7257L37.922 27.3712Z" fill="#29B0BA"/>
<path d="M43.7615 30.5956L42.1162 31.4947L43.0198 33.1377L44.665 32.2386L43.7615 30.5956Z" fill="#2983C6"/>
<path d="M42.2691 28.5547L40.9475 29.2785L41.6735 30.5956L42.9929 29.8719L42.2691 28.5547Z" fill="#29B0BA"/>
<path d="M41.2105 31.9172L39.8911 32.6409L40.6149 33.9581L41.9365 33.2343L41.2105 31.9172Z" fill="#29B0BA"/>
<path d="M40.3632 30.0494L39.3337 30.6136L39.8979 31.6385L40.9273 31.0766L40.3632 30.0494Z" fill="#28316F"/>
<path d="M38.9898 32.8657L37.9626 33.4299L38.5268 34.4548L39.554 33.8929L38.9898 32.8657Z" fill="#5AAC4C"/>
<path d="M39.3719 28.5615L38.3447 29.1234L38.9066 30.1506L39.9361 29.5864L39.3719 28.5615Z" fill="#213466"/>
<path d="M38.5988 31.0204L37.5693 31.5823L38.1335 32.6095L39.1629 32.0453L38.5988 31.0204Z" fill="#D5D505"/>
<path d="M38.003 29.6718L37.2793 30.0674L37.6771 30.7889L38.3986 30.3933L38.003 29.6718Z" fill="#B4B1B3"/>
<path d="M36.9018 31.6767L36.1781 32.0723L36.5759 32.7938L37.2997 32.3982L36.9018 31.6767Z" fill="#29B0BA"/>
<path d="M37.8911 37.4592L37.6613 39.3196L39.524 39.5497L39.7538 37.6893L37.8911 37.4592Z" fill="#75B12F"/>
<path d="M38.2437 34.9895L38.0587 36.4817L39.5532 36.6669L39.7381 35.1747L38.2437 34.9895Z" fill="#213466"/>
<path d="M35.4165 37.1002L35.2316 38.5924L36.726 38.7776L36.911 37.2854L35.4165 37.1002Z" fill="#29B0BA"/>
<path d="M36.1492 35.138L36.0055 36.3001L37.1698 36.4441L37.3135 35.282L36.1492 35.138Z" fill="#75B12F"/>
<path d="M33.3857 36.6191L33.2421 37.7812L34.4064 37.9252L34.5501 36.7631L33.3857 36.6191Z" fill="#B4B1B3"/>
<path d="M36.2219 33.3468L36.0779 34.509L37.2422 34.6533L37.3863 33.4912L36.2219 33.3468Z" fill="#B4B1B3"/>
<path d="M34.1536 34.8871L34.0095 36.0492L35.1739 36.1935L35.3179 35.0314L34.1536 34.8871Z" fill="#75B12F"/>
<path d="M34.8032 33.4918L34.7021 34.3082L35.5208 34.4095L35.6218 33.5931L34.8032 33.4918Z" fill="#B4B1B3"/>
<path d="M32.7327 34.4759L32.6317 35.2923L33.4503 35.3935L33.5513 34.5771L32.7327 34.4759Z" fill="#B4B1B3"/>
<path d="M32.3368 41.1191L30.9613 39.8447L29.6824 41.218L31.0579 42.4924L32.3368 41.1191Z" fill="#D5D505"/>
<path d="M32.0828 14.8711L30.7073 13.5967L29.4283 14.97L30.8061 16.2444L32.0828 14.8711Z" fill="#75B12F"/>
<path d="M33.8045 39.0625L32.7009 38.0398L31.676 39.1411L32.7796 40.1638L33.8045 39.0625Z" fill="#29B0BA"/>
<path d="M30.2757 39.1209L29.1698 38.0982L28.1449 39.1996L29.2507 40.2222L30.2757 39.1209Z" fill="#75B12F"/>
<path d="M31.7816 37.7296L30.923 36.9317L30.1251 37.7903L30.9837 38.586L31.7816 37.7296Z" fill="#2983C6"/>
<path d="M28.6709 37.3161L27.8123 36.5204L27.0144 37.3767L27.8753 38.1747L28.6709 37.3161Z" fill="#D5D505"/>
<path d="M32.8853 36.3203L32.0267 35.5247L31.2288 36.381L32.0874 37.1789L32.8853 36.3203Z" fill="#D5D505"/>
<path d="M30.3026 36.3631L29.444 35.5674L28.6461 36.4237L29.5047 37.2217L30.3026 36.3631Z" fill="#B4B1B3"/>
<path d="M31.3974 35.3741L30.7927 34.8122L30.2308 35.4168L30.8355 35.9765L31.3974 35.3741Z" fill="#213466"/>
<path d="M29.1452 34.9628L28.5405 34.4031L27.9786 35.0055L28.5833 35.5651L29.1452 34.9628Z" fill="#B4B1B3"/>
<path d="M23.9482 37.7251L22.108 38.0939L22.4764 39.9319L24.3166 39.5631L23.9482 37.7251Z" fill="#2983C6"/>
<path d="M26.4167 37.2739L24.9402 37.5697L25.2355 39.044L26.7121 38.7483L26.4167 37.2739Z" fill="#29B0BA"/>
<path d="M23.5276 35.2642L22.051 35.5604L22.3468 37.0348L23.8234 36.7386L23.5276 35.2642Z" fill="#75B12F"/>
<path d="M25.6213 35.3393L24.4709 35.5697L24.7009 36.7179L25.8513 36.4875L25.6213 35.3393Z" fill="#D5D505"/>
<path d="M27.3427 34.8404L26.1923 35.0708L26.4222 36.219L27.5726 35.9885L27.3427 34.8404Z" fill="#28316F"/>
<path d="M25.2253 33.3678L24.075 33.5982L24.3049 34.7464L25.4553 34.516L25.2253 33.3678Z" fill="#2983C6"/>
<path d="M26.764 33.5539L25.9551 33.7157L26.1165 34.5224L26.9254 34.3606L26.764 33.5539Z" fill="#75B12F"/>
<path d="M25.1812 31.9013L24.3724 32.0635L24.5342 32.8701L25.343 32.7079L25.1812 31.9013Z" fill="#B4B1B3"/>
<path d="M18.7252 33.6164L19.5051 31.9105L17.7947 31.135L17.017 32.8388L18.7252 33.6164Z" fill="#29B0BA"/>
<path d="M21.1457 34.3582L21.7683 32.9916L20.3995 32.3667L19.7747 33.7356L21.1457 34.3582Z" fill="#D5D505"/>
<path d="M19.977 31.0339L20.6019 29.6651L19.2308 29.0425L18.606 30.4113L19.977 31.0339Z" fill="#2983C6"/>
<path d="M21.1906 30.4678L20.7047 31.5333L21.7723 32.0201L22.2581 30.9546L21.1906 30.4678Z" fill="#29B0BA"/>
<path d="M23.2047 34.6863L23.6902 33.6209L22.6226 33.1354L22.1371 34.2008L23.2047 34.6863Z" fill="#B4B1B3"/>
<path d="M20.6094 27.394L20.1233 28.4594L21.1907 28.9464L21.6768 27.881L20.6094 27.394Z" fill="#28316F"/>
<path d="M22.8861 31.0729L22.4 32.1383L23.4675 32.6253L23.9536 31.5599L22.8861 31.0729Z" fill="#5AAC4C"/>
<path d="M22.026 28.6454L21.5396 29.7106L22.6068 30.198L23.0932 29.1328L22.026 28.6454Z" fill="#D5D505"/>
<path d="M23.8924 30.9148L24.2363 30.1663L23.4856 29.8247L23.1417 30.5754L23.8924 30.9148Z" fill="#213466"/>
<path d="M23.5732 28.6536L23.9149 27.9029L23.1642 27.5613L22.8225 28.312L23.5732 28.6536Z" fill="#75B12F"/>
<path d="M17.6776 25.5294L19.3094 24.6011L18.3789 22.9738L16.7471 23.9021L17.6776 25.5294Z" fill="#29B0BA"/>
<path d="M19.2039 27.5433L20.5142 26.7993L19.7658 25.4935L18.4576 26.2374L19.2039 27.5433Z" fill="#75B12F"/>
<path d="M20.2063 24.1651L21.5144 23.4211L20.7682 22.1152L19.4601 22.8592L20.2063 24.1651Z" fill="#213466"/>
<path d="M21.085 26.0172L22.1032 25.4373L21.5233 24.4213L20.5051 25.0012L21.085 26.0172Z" fill="#2983C6"/>
<path d="M22.4112 23.1806L23.4294 22.6007L22.8495 21.5826L21.8291 22.1624L22.4112 23.1806Z" fill="#75B12F"/>
<path d="M22.1011 27.4894L23.1192 26.9095L22.5393 25.8935L21.5189 26.4734L22.1011 27.4894Z" fill="#29B0BA"/>
<path d="M22.8337 25.0192L23.8519 24.4393L23.272 23.4211L22.2516 24.0033L22.8337 25.0192Z" fill="#D5D505"/>
<path d="M23.4519 26.3565L24.1689 25.9497L23.7598 25.235L23.0428 25.6418L23.4519 26.3565Z" fill="#B4B1B3"/>
<path d="M24.5194 24.3359L25.2364 23.9268L24.8273 23.2121L24.1104 23.6189L24.5194 24.3359Z" fill="#75B12F"/>
<path d="M21.7657 16.4993L21.5664 18.3631L23.4325 18.5626L23.6318 16.6988L21.7657 16.4993Z" fill="#75B12F"/>
<path d="M21.7834 19.3907L21.6234 20.8858L23.1207 21.046L23.2807 19.5509L21.7834 19.3907Z" fill="#B4B1B3"/>
<path d="M24.5786 17.2368L24.4186 18.7319L25.9159 18.8921L26.0759 17.397L24.5786 17.2368Z" fill="#29B0BA"/>
<path d="M24.1707 19.5836L24.046 20.748L25.2126 20.8729L25.3373 19.7086L24.1707 19.5836Z" fill="#D5D505"/>
<path d="M26.9116 18.0464L26.7874 19.2108L27.9541 19.3353L28.0783 18.1709L26.9116 18.0464Z" fill="#2983C6"/>
<path d="M24.1311 21.3698L24.0063 22.5341L25.1729 22.6591L25.2976 21.4947L24.1311 21.3698Z" fill="#29B0BA"/>
<path d="M26.1738 19.794L26.0491 20.9584L27.2157 21.0833L27.3404 19.919L26.1738 19.794Z" fill="#75B12F"/>
<path d="M25.8534 21.5871L25.7659 22.4051L26.5861 22.4928L26.6736 21.6749L25.8534 21.5871Z" fill="#213466"/>
<path d="M27.9045 20.5683L27.8175 21.3863L28.6378 21.4736L28.7248 20.6556L27.9045 20.5683Z" fill="#B4B1B3"/>
<path d="M36.677 29.1953C36.5376 29.1167 36.2837 28.984 35.933 28.8739C35.4273 28.7121 34.7215 28.5907 33.8854 28.7233C33.6045 28.7683 33.3078 28.8424 32.9998 28.9526C32.9706 28.9638 32.9414 28.9728 32.9122 28.984C32.7549 29.0425 32.5998 29.1144 32.4424 29.1931C32.3076 29.2605 32.175 29.3347 32.0424 29.4156C31.7389 29.5976 31.44 29.8044 31.15 30.0292C30.8196 28.031 30.9815 26.1767 31.0579 25.2664C31.0579 25.2619 31.0646 25.2597 31.0691 25.2619C31.7771 25.707 31.5793 26.9499 31.4287 27.3073C31.4265 27.314 31.4355 27.3185 31.4422 27.314C32.3233 26.2734 31.894 25.1226 31.712 24.8326C31.7075 24.8259 31.7164 24.8192 31.7232 24.8237C31.8513 24.927 31.9547 25.0372 32.0424 25.1496C32.3143 25.4979 32.4155 25.8733 32.4424 26.206C32.4559 26.3813 32.4514 26.5431 32.4424 26.6825C32.4402 26.7207 32.4379 26.7544 32.4334 26.7881C32.4334 26.7926 32.4379 26.7948 32.4424 26.7926C32.4447 26.7926 32.4469 26.7926 32.4469 26.7903C32.6852 26.3228 32.7998 25.6171 32.4424 24.9315C32.3458 24.745 32.2154 24.5607 32.0424 24.3831C31.9929 24.3314 31.939 24.282 31.8828 24.2303C31.8783 24.2258 31.8828 24.2168 31.8895 24.219C31.9435 24.2325 31.9929 24.2483 32.0424 24.264C32.1929 24.3157 32.3256 24.3876 32.4424 24.4753C32.7099 24.6731 32.892 24.9428 32.9998 25.226C33.0898 25.4597 33.1302 25.7002 33.1302 25.9138C33.1302 25.9228 33.1415 25.9228 33.1437 25.916C33.31 25.3069 33.2089 24.8461 32.9998 24.5112C32.8515 24.2707 32.647 24.0954 32.4424 23.9718C32.3031 23.8886 32.1637 23.8302 32.0424 23.7942C31.9704 23.7718 31.9075 23.7583 31.8513 23.7515C31.8423 23.7515 31.8446 23.738 31.8535 23.738C31.9187 23.7313 31.9817 23.7291 32.0424 23.7268C32.1907 23.7246 32.3233 23.738 32.4424 23.7583C32.6784 23.8032 32.8627 23.8841 32.9998 23.9785C33.2246 24.1291 33.337 24.3067 33.3752 24.3786C33.3775 24.3854 33.3887 24.3809 33.3887 24.3741C33.3572 24.0527 33.2089 23.801 33.0021 23.6212C32.8425 23.4818 32.647 23.3852 32.4447 23.3267C32.3121 23.2908 32.1772 23.2705 32.0446 23.2683C31.8648 23.266 31.6917 23.2953 31.5456 23.3582C31.5389 23.3604 31.5344 23.3537 31.5366 23.347C31.667 23.1604 31.8513 23.048 32.0446 22.9873C32.1795 22.9469 32.3166 22.9311 32.4447 22.9401C32.5683 22.9469 32.6807 22.9738 32.7728 23.0166C32.7796 23.0188 32.7841 23.0121 32.7796 23.0053C32.6784 22.8907 32.5638 22.8008 32.4447 22.7333C32.3166 22.6614 32.1817 22.6187 32.0446 22.603C31.6872 22.5625 31.3231 22.7154 31.0804 23.0817C31.0781 23.0862 31.0714 23.0862 31.0691 23.0817C31.0219 22.9986 30.977 22.9064 30.9365 22.8098C30.8399 22.585 30.7612 22.3333 30.7185 22.0815C30.7162 22.0725 30.7073 22.0725 30.7073 22.0815C30.6645 22.3333 30.5836 22.5873 30.487 22.812C30.4443 22.9087 30.4016 22.9986 30.3544 23.0795C30.3521 23.084 30.3454 23.084 30.3431 23.0795C29.9206 22.4389 29.1272 22.4524 28.6439 23.0053C28.6394 23.0098 28.6439 23.0188 28.6507 23.0166C28.9721 22.8637 29.5812 22.9087 29.8869 23.347C29.8914 23.3537 29.8846 23.3604 29.8779 23.3582C29.4081 23.1604 28.6799 23.2885 28.291 23.7515C28.1517 23.9156 28.0573 24.1246 28.0326 24.3741C28.0326 24.3809 28.0415 24.3854 28.046 24.3786C28.0753 24.3224 28.1517 24.2011 28.291 24.0774C28.518 23.8774 28.9136 23.6751 29.5677 23.7358C29.5767 23.738 29.5767 23.7493 29.5699 23.7493C29.235 23.7897 28.545 24.0887 28.291 24.772C28.1787 25.0731 28.1494 25.4507 28.2753 25.9138C28.2776 25.9205 28.2888 25.9205 28.2888 25.9115C28.2888 25.9003 28.2888 25.8913 28.291 25.88C28.2978 25.2597 28.6529 24.4281 29.5317 24.2168C29.5385 24.2145 29.543 24.2235 29.5385 24.228C28.5563 25.0911 28.6529 26.1565 28.9743 26.7858C28.9788 26.7926 28.9878 26.7903 28.9878 26.7836C28.9451 26.3071 28.9114 25.4597 29.6981 24.8192C29.7048 24.8147 29.7138 24.8214 29.7093 24.8282C29.5272 25.1203 29.0979 26.2689 29.979 27.3095C29.9835 27.3163 29.9948 27.3118 29.9925 27.3028C29.8442 26.9477 29.6464 25.7025 30.3521 25.2574C30.3566 25.2552 30.3634 25.2575 30.3634 25.2619C30.4398 26.1722 30.6016 28.0265 30.2712 30.0247C29.7026 29.5887 29.1024 29.2066 28.5091 28.9818C28.4349 28.9548 28.363 28.9301 28.2933 28.9054C27.6797 28.7031 27.1178 28.6469 26.6278 28.6694C25.8411 28.7031 25.2387 28.9391 24.9083 29.1032C24.8409 29.1369 24.7847 29.1683 24.742 29.1931C24.724 29.2043 24.7375 29.229 24.7555 29.2223C24.8072 29.2066 24.8566 29.1908 24.9083 29.1773C25.513 29.0065 26.0861 28.9616 26.6278 29.0088C27.2189 29.0605 27.7741 29.2223 28.2933 29.456C29.0215 29.7842 29.6801 30.2517 30.2757 30.7462C29.4351 31.4789 28.7248 32.1914 28.2933 32.4409C28.2708 32.4522 28.2506 32.4656 28.2304 32.4769C28.127 32.3353 27.9471 32.2544 27.7516 32.2971C27.5808 32.3353 27.4414 32.4724 27.4032 32.641C27.3695 32.7915 27.4077 32.9556 27.4931 33.041C27.7224 33.2703 27.9876 33.286 28.2933 33.1579C28.8754 32.9129 29.5992 32.1442 30.487 31.3306C30.5612 31.2631 30.6353 31.1935 30.7117 31.126C30.7882 31.1935 30.8623 31.2609 30.9365 31.3283C31.3388 31.6969 31.7075 32.0566 32.0446 32.3622C32.184 32.4881 32.3166 32.605 32.4447 32.7084C32.6425 32.8702 32.829 33.0028 33.0021 33.095C33.3415 33.2748 33.6359 33.2973 33.8877 33.0747C33.9012 33.0635 33.9146 33.0523 33.9281 33.0388C33.9866 32.9803 34.054 32.7893 34.018 32.6387C33.9978 32.5511 33.9506 32.4724 33.8854 32.4117C33.827 32.3555 33.7506 32.3128 33.6696 32.2948C33.4741 32.2521 33.2943 32.333 33.1909 32.4746C33.1325 32.4454 33.0695 32.405 32.9998 32.3578C32.8403 32.2476 32.6537 32.0925 32.4424 31.9082C32.3166 31.7981 32.184 31.6767 32.0424 31.5486C31.7681 31.2991 31.467 31.0249 31.1478 30.7439C31.431 30.5079 31.7299 30.2787 32.0424 30.0674C32.1727 29.9797 32.3053 29.8943 32.4424 29.8134C32.6245 29.7055 32.8088 29.6066 32.9998 29.5145C33.2853 29.3774 33.5797 29.2627 33.8854 29.1751C34.5193 28.993 35.2003 28.9323 35.933 29.0492C36.1713 29.0874 36.414 29.1436 36.6635 29.22C36.6815 29.2313 36.695 29.2066 36.677 29.1953Z" fill="#757A81"/>
<path d="M4.91327 49.6062H4.36035V50.1591H4.91327V49.6062Z" fill="#AFACAD"/>
<path d="M41.5881 48.9678V45.3177H41.0486V48.4284H39.0145V45.3177H38.4751V48.4284H36.3331V45.3177H35.4857C35.1486 45.3177 34.8429 45.3626 34.5687 45.4548C34.2945 45.5469 34.0607 45.675 33.8674 45.8369C33.6741 46.0009 33.5258 46.1942 33.4201 46.419C33.3145 46.6438 33.2628 46.8843 33.2628 47.145C33.2628 47.4642 33.3235 47.7361 33.4449 47.9654C33.5662 48.1946 33.7281 48.3812 33.9304 48.5295C34.1327 48.6779 34.3687 48.788 34.6384 48.8577C34.9081 48.9296 35.1913 48.9656 35.488 48.9656L41.5881 48.9678ZM34.6946 48.343C34.517 48.2845 34.3619 48.2014 34.2293 48.0913C34.0967 47.9811 33.9933 47.8463 33.9169 47.6889C33.8405 47.5293 33.8023 47.3495 33.8023 47.1472C33.8023 46.9539 33.845 46.7786 33.9281 46.619C34.0113 46.4595 34.1214 46.3246 34.2585 46.21C34.3956 46.0953 34.5507 46.0077 34.726 45.947C34.9014 45.8863 35.0812 45.8571 35.2655 45.8571H35.7982V48.4306H35.2655C35.0632 48.4306 34.8721 48.4014 34.6946 48.343Z" fill="#AFACAD"/>
<path d="M30.6039 44.1444H30.0645V48.9678H30.6039V44.1444Z" fill="#AFACAD"/>
<path d="M36.3331 44.1444H35.7802V44.6973H36.3331V44.1444Z" fill="#AFACAD"/>
<path d="M41.5948 49.5994H41.0419V50.1523H41.5948V49.5994Z" fill="#AFACAD"/>
<path d="M5.85736 49.6062H5.30444V50.1591H5.85736V49.6062Z" fill="#AFACAD"/>
<path d="M27.9562 48.4306H27.0751C26.7605 48.4306 26.5132 48.3857 26.3334 48.2958C26.1536 48.2059 26.012 48.071 25.9086 47.8935C25.9401 47.7541 25.9558 47.5855 25.9558 47.39V45.6548H25.4164V47.4754C25.4164 47.7856 25.3332 48.0328 25.1669 48.2194C25.0006 48.4059 24.7488 48.4981 24.4117 48.4981C24.2544 48.4981 24.1105 48.4733 23.9801 48.4239C23.8498 48.3744 23.7374 48.307 23.643 48.2216C23.5486 48.1362 23.4744 48.0373 23.4205 47.9227C23.3665 47.808 23.3373 47.6867 23.3328 47.5563V45.6548H22.7934V47.5158C22.7934 47.6822 22.7687 47.8215 22.7192 47.9362C22.6698 48.0508 22.6023 48.1452 22.5169 48.2194C22.4315 48.2935 22.3349 48.3475 22.227 48.3812C22.1191 48.4149 22.0045 48.4306 21.8831 48.4306H20.8402V45.6548H20.3008V48.4306H17.4777L18.4195 46.1785C18.2756 46.0526 18.1228 45.9358 17.961 45.8256C17.7991 45.7155 17.6328 45.6188 17.462 45.5357C17.2912 45.4525 17.1181 45.3873 16.9428 45.3401C16.7675 45.2929 16.5944 45.2705 16.4236 45.2705C16.2483 45.2705 16.0729 45.2952 15.8976 45.3401C15.7223 45.3873 15.5492 45.4503 15.3762 45.5312C15.2031 45.6121 15.0368 45.7087 14.8772 45.8211C14.7176 45.9335 14.5693 46.0504 14.4299 46.1762L15.3784 48.4284H13.5129V45.3177H12.652C12.3194 45.3177 12.0159 45.3649 11.7417 45.4593C11.4675 45.5537 11.2338 45.6818 11.0382 45.8458C10.8427 46.0099 10.6921 46.2055 10.5842 46.4302C10.4763 46.6572 10.4224 46.9022 10.4224 47.1675C10.4224 47.4866 10.4808 47.7586 10.5999 47.9834C10.7191 48.2104 10.8809 48.3969 11.0854 48.5408C11.29 48.6869 11.526 48.7948 11.7957 48.8622C12.0654 48.9319 12.3508 48.9656 12.652 48.9656H12.9757V49.1207C12.9757 49.4039 12.8948 49.6039 12.7329 49.7253C12.5711 49.8467 12.3441 49.9073 12.0519 49.9073C11.8856 49.9073 11.7372 49.8916 11.6046 49.8601C11.472 49.8287 11.3214 49.7747 11.1506 49.6983L10.982 50.2153C11.1888 50.2917 11.3709 50.3479 11.5305 50.3861C11.69 50.4243 11.8496 50.4445 12.0114 50.4445C12.5374 50.4445 12.9172 50.3209 13.1555 50.0714C13.3937 49.8219 13.5129 49.487 13.5129 49.0667V48.9656H21.8831C22.1438 48.9656 22.3753 48.9094 22.5799 48.797C22.7844 48.6846 22.9485 48.534 23.0743 48.3475C23.2047 48.5632 23.3823 48.7318 23.607 48.8509C23.8318 48.9723 24.0993 49.033 24.4094 49.033C24.7331 49.033 25.0073 48.9768 25.2343 48.8644C25.4613 48.7521 25.6344 48.5812 25.7558 48.3475C25.8007 48.4239 25.8547 48.4981 25.9199 48.5722C25.985 48.6464 26.0682 48.7116 26.1716 48.77C26.275 48.8285 26.4009 48.8757 26.5447 48.9116C26.6548 48.9386 26.7874 48.9521 26.9313 48.9588V48.9656H28.4867V44.1421H27.9472V48.4306H27.9562ZM12.9779 48.4306H12.4318C12.2295 48.4306 12.0407 48.4037 11.8631 48.3475C11.6855 48.2913 11.5305 48.2104 11.3956 48.1025C11.2607 47.9946 11.1551 47.862 11.0787 47.7069C11.0023 47.5496 10.964 47.3697 10.964 47.1697C10.964 46.9764 11.0045 46.8011 11.0877 46.6393C11.1708 46.4774 11.281 46.3403 11.4181 46.2257C11.5552 46.1111 11.7103 46.0234 11.8856 45.9605C12.0609 45.8975 12.243 45.8661 12.4318 45.8661H12.9779V48.4306ZM15.9493 48.4306L15.1087 46.3673C15.3155 46.192 15.5268 46.0639 15.7448 45.9852C15.9628 45.9043 16.1898 45.8638 16.4281 45.8638C16.6708 45.8638 16.9113 45.911 17.1496 46.0077C17.3878 46.1043 17.5901 46.2235 17.7564 46.3673L16.9158 48.4306H15.9493Z" fill="#AFACAD"/>
<path d="M3.07026 44.1444H2.51733V44.6973H3.07026V44.1444Z" fill="#AFACAD"/>
<path d="M57.5599 44.1444H57.007V44.6973H57.5599V44.1444Z" fill="#AFACAD"/>
<path d="M52.7745 44.1444H52.2351V48.9678H52.7745V44.1444Z" fill="#AFACAD"/>
<path d="M35.3891 44.1444H34.8362V44.6973H35.3891V44.1444Z" fill="#AFACAD"/>
<path d="M9.57037 46.8528C9.57037 46.6415 9.5434 46.446 9.48496 46.2617C9.42877 46.0774 9.34336 45.9223 9.22648 45.7919C9.08264 45.6346 8.92305 45.5177 8.74549 45.439C8.56793 45.3604 8.35215 45.3222 8.09592 45.3222H7.69809V45.8593H8.17009C8.30046 45.8593 8.42408 45.8886 8.54095 45.9425C8.65783 45.9987 8.75448 46.0706 8.8309 46.1605C8.90732 46.2549 8.95902 46.3583 8.98823 46.4707C9.01745 46.5831 9.03319 46.7179 9.03319 46.873V48.4329H6.50684V48.9701H9.57037V46.8528Z" fill="#AFACAD"/>
<path d="M81.2748 44.1444H80.7354V48.9678H81.2748V44.1444Z" fill="#AFACAD"/>
<path d="M58.5038 44.1444H57.9509V44.6973H58.5038V44.1444Z" fill="#AFACAD"/>
<path d="M79.1664 44.1444H78.627V48.4306H76.7749C76.8873 48.1834 76.9435 47.9204 76.9435 47.6372C76.9435 47.3608 76.8918 47.1 76.7929 46.8618C76.6917 46.6213 76.5546 46.4145 76.3793 46.2414C76.204 46.0661 75.9972 45.929 75.7567 45.8279C75.5162 45.7267 75.2577 45.6773 74.979 45.6773C74.7093 45.6773 74.4576 45.729 74.2238 45.8324C73.9901 45.9358 73.7878 46.0751 73.6147 46.2527C73.4417 46.4302 73.3068 46.637 73.2079 46.8753C73.109 47.1135 73.0596 47.3675 73.0596 47.6417C73.0596 47.7856 73.0753 47.9227 73.1045 48.0553C73.1337 48.1879 73.1719 48.3138 73.2214 48.4351H71.5514C71.6638 48.1879 71.72 47.9249 71.72 47.6417C71.72 47.3653 71.6683 47.1045 71.5694 46.8663C71.4682 46.6258 71.3311 46.419 71.1558 46.2459C70.9805 46.0706 70.7737 45.9335 70.5332 45.8324C70.2927 45.7312 70.0342 45.6818 69.7555 45.6818C69.4858 45.6818 69.2363 45.7335 69.0026 45.8369C68.7688 45.9403 68.5665 46.0796 68.3934 46.2572C68.2204 46.4347 68.0855 46.6415 67.9866 46.8798C67.8877 47.118 67.8383 47.372 67.8383 47.6462C67.8383 47.7901 67.854 47.9272 67.8832 48.0598C67.9125 48.1924 67.9507 48.3183 68.0001 48.4396H66.2897V44.1534H65.7502V48.4396H64.033V47.617C64.033 47.4102 64.0061 47.2147 63.9521 47.0281C63.8982 46.8416 63.8128 46.6842 63.6959 46.5539C63.5565 46.3965 63.3992 46.2797 63.2239 46.2032C63.0486 46.1268 62.826 46.0886 62.5563 46.0886H60.1716L61.1853 44.1511H60.5986L59.5647 46.0819C59.5827 46.1987 59.6097 46.2999 59.6501 46.3853C59.6883 46.4707 59.74 46.5516 59.8075 46.628H62.5541C62.7249 46.628 62.871 46.6528 62.9946 46.7067C63.1182 46.7584 63.2171 46.8281 63.2935 46.918C63.37 47.0079 63.4217 47.1113 63.4486 47.2282C63.4756 47.345 63.4891 47.4754 63.4891 47.617V48.4396H58.5061V45.3289H57.6565C57.3193 45.3289 57.0136 45.3738 56.7417 45.466C56.4675 45.5582 56.2337 45.6863 56.0404 45.8481C55.8471 46.0122 55.6988 46.2055 55.5931 46.4302C55.4875 46.655 55.4358 46.8955 55.4358 47.1562C55.4358 47.4754 55.4965 47.7474 55.6178 47.9766C55.7392 48.2059 55.9011 48.3924 56.1033 48.5408C56.3056 48.6891 56.5416 48.7993 56.8113 48.8689C57.0811 48.9409 57.3643 48.9768 57.6587 48.9768H68.3462C68.5216 49.1656 68.7283 49.314 68.9688 49.4241C69.2093 49.5342 69.4701 49.5882 69.7533 49.5882C70.041 49.5882 70.3084 49.5342 70.5579 49.4263C70.8074 49.3185 71.0209 49.1679 71.2008 48.9768H73.572C73.7473 49.1656 73.9541 49.314 74.1946 49.4241C74.4351 49.5342 74.6958 49.5882 74.979 49.5882C75.2667 49.5882 75.5342 49.5342 75.7837 49.4263C76.0332 49.3185 76.2467 49.1679 76.4265 48.9768H79.1664V44.1444ZM57.9666 48.4306H57.4339C57.2317 48.4306 57.0429 48.4014 56.8653 48.343C56.6877 48.2845 56.5326 48.2014 56.4 48.0912C56.2674 47.9811 56.164 47.8463 56.0876 47.6889C56.0112 47.5293 55.973 47.3495 55.973 47.1472C55.973 46.9539 56.0134 46.7786 56.0966 46.619C56.1798 46.4595 56.2899 46.3246 56.427 46.21C56.5641 46.0953 56.7192 46.0077 56.8945 45.947C57.0698 45.8863 57.2496 45.8571 57.4339 45.8571H57.9666V48.4306ZM71.0681 48.1924C70.994 48.3655 70.8928 48.5138 70.7647 48.6397C70.6366 48.7655 70.486 48.8622 70.3129 48.9319C70.1399 49.0015 69.9533 49.0353 69.751 49.0353C69.5532 49.0353 69.3712 48.997 69.2026 48.9251C69.034 48.8509 68.8879 48.7498 68.7643 48.6217C68.6407 48.4936 68.544 48.3452 68.4744 48.1744C68.4047 48.0036 68.371 47.8215 68.371 47.6305C68.371 47.4372 68.4069 47.2551 68.4744 47.0821C68.544 46.909 68.6407 46.7606 68.7621 46.6325C68.8834 46.5044 69.0273 46.4033 69.1959 46.3268C69.3644 46.2504 69.5487 46.2122 69.751 46.2122C69.9578 46.2122 70.1466 46.2482 70.3197 46.3201C70.4927 46.392 70.6433 46.4909 70.7715 46.6168C70.8996 46.7427 70.9985 46.891 71.0704 47.0641C71.1423 47.2371 71.1783 47.4259 71.1783 47.6327C71.1805 47.8328 71.1423 48.0193 71.0681 48.1924ZM76.2939 48.1924C76.2197 48.3655 76.1186 48.5138 75.9905 48.6397C75.8624 48.7655 75.7118 48.8622 75.5387 48.9319C75.3656 49.0015 75.1791 49.0353 74.9768 49.0353C74.779 49.0353 74.5969 48.997 74.4284 48.9251C74.2598 48.8509 74.1137 48.7498 73.9901 48.6217C73.8665 48.4936 73.7698 48.3452 73.7001 48.1744C73.6305 48.0036 73.5945 47.8215 73.5945 47.6305C73.5945 47.4372 73.6305 47.2551 73.7001 47.0821C73.7698 46.909 73.8642 46.7606 73.9856 46.6325C74.107 46.5044 74.2508 46.4033 74.4194 46.3268C74.5879 46.2504 74.7723 46.2122 74.9745 46.2122C75.1813 46.2122 75.3701 46.2482 75.5432 46.3201C75.7163 46.392 75.8669 46.4909 75.995 46.6168C76.1231 46.7427 76.222 46.891 76.2939 47.0641C76.3658 47.2371 76.4018 47.4259 76.4018 47.6327C76.4063 47.8328 76.3681 48.0193 76.2939 48.1924Z" fill="#AFACAD"/>
<path d="M1.37556 48.8599C1.64527 48.9319 1.92848 48.9678 2.22292 48.9678H5.75172V45.3177H5.21228V48.4284H3.07028V45.3177H2.22067C1.88353 45.3177 1.58009 45.3626 1.30588 45.4548C1.03167 45.5469 0.797913 45.675 0.604616 45.8369C0.411319 46.0009 0.262973 46.1942 0.157334 46.419C0.0516951 46.6438 0 46.8843 0 47.145C0 47.4642 0.0606858 47.7361 0.182058 47.9654C0.303431 48.1946 0.465262 48.3812 0.66755 48.5295C0.869838 48.6801 1.10584 48.7903 1.37556 48.8599ZM0.539434 47.1472C0.539434 46.9539 0.582139 46.7786 0.665302 46.619C0.748465 46.4595 0.858599 46.3246 0.995705 46.21C1.13281 46.0953 1.2879 46.0077 1.46322 45.947C1.63853 45.8863 1.81834 45.8571 2.00265 45.8571H2.53534V48.4306H2.00265C1.80036 48.4306 1.61156 48.4014 1.434 48.343C1.25643 48.2845 1.10134 48.2014 0.968733 48.0913C0.836122 47.9811 0.732731 47.8463 0.656311 47.6889C0.577644 47.5293 0.539434 47.3495 0.539434 47.1472Z" fill="#AFACAD"/>
<path d="M39.6259 49.6062H39.073V50.1591H39.6259V49.6062Z" fill="#AFACAD"/>
<path d="M38.6819 49.6062H38.129V50.1591H38.6819V49.6062Z" fill="#AFACAD"/>
<path d="M43.6852 49.6511C43.7189 49.4825 43.7369 49.2937 43.7369 49.0825V48.9678H50.6664V44.1444H50.1269V48.4306H47.8366L48.7784 46.1785C48.6345 46.0526 48.4817 45.9358 48.3198 45.8256C48.158 45.7155 47.9917 45.6188 47.8209 45.5357C47.65 45.4525 47.477 45.3873 47.3017 45.3401C47.1263 45.2929 46.9533 45.2705 46.7825 45.2705C46.6071 45.2705 46.4318 45.2952 46.2565 45.3401C46.0812 45.3873 45.9081 45.4503 45.7351 45.5312C45.562 45.6121 45.3957 45.7087 45.2361 45.8211C45.0765 45.9335 44.9282 46.0504 44.7888 46.1763L45.7373 48.4284H43.7302V45.3177H43.1907V49.0825C43.1907 49.2353 43.184 49.3634 43.1683 49.4691C43.1525 49.5747 43.1255 49.6601 43.0873 49.7253C43.0491 49.7905 42.9974 49.8377 42.9322 49.8669C42.8671 49.8961 42.7839 49.9118 42.6805 49.9118C42.6311 49.9118 42.5884 49.9096 42.5524 49.9051C42.5164 49.9006 42.467 49.8894 42.404 49.8714L42.2625 50.3883C42.4108 50.4288 42.5569 50.449 42.7007 50.449C42.894 50.449 43.0559 50.4176 43.1885 50.3546C43.3211 50.2917 43.4267 50.2018 43.5076 50.0827C43.5953 49.9635 43.6515 49.8197 43.6852 49.6511ZM45.4676 46.3673C45.6744 46.192 45.8856 46.0639 46.1037 45.9852C46.3217 45.9043 46.5487 45.8638 46.7869 45.8638C47.0297 45.8638 47.2702 45.911 47.5084 46.0077C47.7467 46.1043 47.949 46.2235 48.1153 46.3673L47.2747 48.4306H46.3127L45.4676 46.3673Z" fill="#AFACAD"/>
<path d="M2.12628 44.1444H1.57336V44.6973H2.12628V44.1444Z" fill="#AFACAD"/>
<path d="M3.86582 52.5011H3.03644L1.20462 54.4341V52.5011H0.528076V56.3423H1.20462V55.2298L1.80474 54.6139L3.11736 56.3423H3.93775L2.2655 54.1531L3.86582 52.5011Z" fill="#AFACAD"/>
<path d="M5.23025 52.5011H4.55371V56.3423H5.23025V52.5011Z" fill="#AFACAD"/>
<path d="M8.95906 55.1578L6.89797 52.5011H6.27087V56.3423H6.93618V53.6092L9.05795 56.3423H9.62436V52.5011H8.95906V55.1578Z" fill="#AFACAD"/>
<path d="M12.425 54.7847H13.4094V55.504C13.1734 55.6793 12.843 55.7939 12.4812 55.7939C11.6945 55.7939 11.173 55.2118 11.173 54.4229V54.4116C11.173 53.6766 11.7102 53.0563 12.4205 53.0563C12.9104 53.0563 13.2004 53.2159 13.4971 53.4676L13.9264 52.9574C13.5308 52.6225 13.1172 52.4359 12.4474 52.4359C11.2877 52.4359 10.4628 53.3462 10.4628 54.4229V54.4341C10.4628 55.5534 11.2539 56.4098 12.4587 56.4098C13.1397 56.4098 13.6859 56.1356 14.0635 55.8119V54.1981H12.425V54.7847Z" fill="#AFACAD"/>
<path d="M16.4303 52.5011H14.9963V56.3423H16.4303C17.6396 56.3423 18.4757 55.504 18.4757 54.4206V54.4094C18.4757 53.3305 17.6396 52.5011 16.4303 52.5011ZM17.7677 54.4341C17.7677 55.1848 17.2395 55.7287 16.4326 55.7287H15.6751V53.117H16.4326C17.2417 53.117 17.7677 53.6721 17.7677 54.4229V54.4341Z" fill="#AFACAD"/>
<path d="M21.1277 52.4359C19.9454 52.4359 19.1116 53.3417 19.1116 54.4229V54.4341C19.1116 55.5152 19.9365 56.4098 21.1187 56.4098C22.301 56.4098 23.1371 55.504 23.1371 54.4229V54.4116C23.1326 53.3305 22.3077 52.4359 21.1277 52.4359ZM22.4246 54.4341C22.4246 55.1803 21.8919 55.7894 21.1277 55.7894C20.3635 55.7894 19.8196 55.1691 19.8196 54.4229V54.4116C19.8196 53.6654 20.3523 53.0563 21.1165 53.0563C21.8807 53.0563 22.4246 53.6766 22.4246 54.4229V54.4341Z" fill="#AFACAD"/>
<path d="M25.8635 54.3172L24.6925 52.5011H23.9733V56.3423H24.6386V53.6002L25.8433 55.3983H25.8635L27.0795 53.589V56.3423H27.756V52.5011H27.0346L25.8635 54.3172Z" fill="#AFACAD"/>
<path d="M32.2425 52.4359C31.0602 52.4359 30.2263 53.3417 30.2263 54.4229V54.4341C30.2263 55.5152 31.0512 56.4098 32.2335 56.4098C33.4157 56.4098 34.2518 55.504 34.2518 54.4229V54.4116C34.2496 53.3305 33.4247 52.4359 32.2425 52.4359ZM33.5393 54.4341C33.5393 55.1803 33.0067 55.7894 32.2425 55.7894C31.4783 55.7894 30.9343 55.1691 30.9343 54.4229V54.4116C30.9343 53.6654 31.467 53.0563 32.2312 53.0563C32.9954 53.0563 33.5393 53.6766 33.5393 54.4229V54.4341Z" fill="#AFACAD"/>
<path d="M35.0902 56.3423H35.7667V54.778H37.7065V54.1644H35.7667V53.117H37.9537V52.5011H35.0902V56.3423Z" fill="#AFACAD"/>
<path d="M41.8308 54.1149C41.0936 53.9396 40.9183 53.807 40.9183 53.5126V53.5013C40.9183 53.2496 41.1498 53.045 41.5454 53.045C41.8983 53.045 42.2444 53.1821 42.5905 53.4406L42.9524 52.9304C42.5613 52.618 42.1163 52.4472 41.5566 52.4472C40.7924 52.4472 40.2418 52.9034 40.2418 53.5598V53.571C40.2418 54.279 40.7048 54.5195 41.5229 54.7173C42.2377 54.8814 42.3905 55.0297 42.3905 55.3039V55.3174C42.3905 55.6096 42.1275 55.8007 41.7095 55.8007C41.2307 55.8007 40.8621 55.6186 40.4935 55.3017L40.0867 55.7849C40.5497 56.1962 41.1026 56.3985 41.6915 56.3985C42.5006 56.3985 43.0648 55.9715 43.0648 55.2522V55.241C43.067 54.6027 42.6445 54.3127 41.8308 54.1149Z" fill="#AFACAD"/>
<path d="M45.1394 52.4742L43.4469 56.3423H44.1392L44.5348 55.4141H46.3553L46.7464 56.3423H47.4612L45.7687 52.4742H45.1394ZM44.782 54.8184L45.4428 53.2811L46.1081 54.8184H44.782Z" fill="#AFACAD"/>
<path d="M50.473 54.7128C50.473 55.4208 50.1044 55.7827 49.5043 55.7827C48.8997 55.7827 48.531 55.3983 48.531 54.6858V52.5011H47.8545V54.7128C47.8545 55.8254 48.4928 56.403 49.493 56.403C50.5 56.403 51.1473 55.8276 51.1473 54.6813V52.5034H50.4708V54.7128H50.473Z" fill="#AFACAD"/>
<path d="M53.5747 52.5011H52.1407V56.3423H53.5747C54.784 56.3423 55.6201 55.504 55.6201 54.4206V54.4094C55.6201 53.3305 54.784 52.5011 53.5747 52.5011ZM54.9098 54.4341C54.9098 55.1848 54.3816 55.7287 53.5747 55.7287H52.8173V53.117H53.5747C54.3839 53.117 54.9098 53.6721 54.9098 54.4229V54.4341Z" fill="#AFACAD"/>
<path d="M57.153 52.5011H56.4764V56.3423H57.153V52.5011Z" fill="#AFACAD"/>
<path d="M61.192 52.4742L59.4995 56.3423H60.1918L60.5874 55.4141H62.408L62.7991 56.3423H63.5138L61.8213 52.4742H61.192ZM60.8346 54.8184L61.4954 53.2811L62.1607 54.8184H60.8346Z" fill="#AFACAD"/>
<path d="M67.2967 53.7261V53.7148C67.2967 53.3799 67.182 53.0945 66.9775 52.8855C66.7303 52.645 66.3504 52.5011 65.8672 52.5011H64.1522V56.3423H64.8288V55.0027H65.6649H65.6761L66.6224 56.3423H67.4203L66.3819 54.8881C66.9168 54.7353 67.2967 54.3554 67.2967 53.7261ZM64.8288 54.4049V53.1147H65.8132C66.3145 53.1147 66.6111 53.3395 66.6111 53.7508V53.762C66.6111 54.1509 66.3032 54.4049 65.82 54.4049H64.8288Z" fill="#AFACAD"/>
<path d="M69.6071 52.4742L67.9147 56.3423H68.607L69.0025 55.4141H70.8231L71.2142 56.3423H71.929L70.2365 52.4742H69.6071ZM69.2498 54.8184L69.9106 53.2811L70.5759 54.8184H69.2498Z" fill="#AFACAD"/>
<path d="M75.0061 54.3464C75.2916 54.1981 75.5568 53.9508 75.5568 53.4901V53.4788C75.5568 53.2204 75.4691 53.0136 75.2983 52.8428C75.0781 52.6225 74.7319 52.5034 74.2914 52.5034H72.5652V56.3446H74.3453C75.2039 56.3446 75.7681 55.9782 75.7681 55.2904V55.2792C75.7703 54.7577 75.4579 54.4993 75.0061 54.3464ZM73.2305 53.099H74.2037C74.6375 53.099 74.8803 53.2855 74.8803 53.5867V53.598C74.8803 53.9486 74.5881 54.1194 74.1543 54.1194H73.2305V53.099ZM75.0938 55.2185C75.0938 55.5646 74.8128 55.7445 74.3521 55.7445H73.2305V54.6903H74.3026C74.8353 54.6903 75.0938 54.8836 75.0938 55.2073V55.2185Z" fill="#AFACAD"/>
<path d="M77.2852 52.5011H76.6086V56.3423H77.2852V52.5011Z" fill="#AFACAD"/>
<path d="M80.2499 52.4742H79.6228L77.9303 56.3423H78.6226L79.0182 55.4141H80.8387L81.2298 56.3423H81.9446L80.2499 52.4742ZM79.2654 54.8184L79.9262 53.2811L80.5915 54.8184H79.2654Z" fill="#AFACAD"/>
<path d="M99.7043 0.00012207V56.8194" stroke="#1B8354" stroke-width="0.5"/>
<rect width="169.245" height="56.8195" transform="translate(115.704)" fill="white"/>
<path d="M141.918 25.7893C141.632 25.9652 141.226 25.8715 141.082 25.5348C141.003 25.352 141.053 25.4362 141.038 21.645H142.207V21.2084H141.038V19.4284H140.742C140.527 20.5274 140.243 21.3883 139.102 21.3883V21.645H140.004C140.024 25.3726 139.959 25.4218 140.065 25.8112C140.191 26.2636 140.508 26.5298 141.023 26.5298C141.674 26.5298 142.138 26.2485 142.426 25.7531L142.168 25.5779C142.097 25.6634 142.013 25.7339 141.918 25.7893ZM132.622 19.2614C133.022 20.0128 134.235 19.284 133.585 18.6934C133.101 18.2828 132.377 18.766 132.622 19.2614ZM135.572 22.1398C135.572 21.4144 137.094 20.9162 138.012 22.4066L138.39 22.0665C138.04 21.6067 137.634 21.2303 137.065 21.1386C135.689 20.9155 134.801 21.6696 134.801 22.5572C134.801 23.6049 135.756 23.9649 136.707 24.4049C138.351 25.1604 137.407 26.4641 136.2 26.1151C135.738 25.9782 135.398 25.5799 135.116 25.1816L134.693 25.5642C134.955 25.9077 135.266 26.1863 135.662 26.3519C136.356 26.6523 137.518 26.5852 138.114 26.0761C138.673 25.6005 138.87 24.5938 138.132 23.9574C137.32 23.2361 135.572 23.078 135.572 22.1398ZM145.569 21.1023C144.965 21.1023 144.42 21.6949 144.079 22.1931V21.2084H143.05V26.4176H144.079V22.8097C144.196 22.6195 144.349 22.3916 144.503 22.2294C144.783 21.9413 144.978 21.944 145.309 22.1179C145.652 22.306 146.04 22.2527 146.217 22.1076C146.433 21.9303 146.447 21.5273 146.139 21.2891C145.973 21.1598 145.774 21.1023 145.569 21.1023ZM124.859 18.6941C124.614 18.9131 124.634 19.2286 124.859 19.427C125.41 19.9081 126.25 19.1868 125.694 18.6941C125.477 18.5052 125.113 18.4778 124.859 18.6941ZM128.091 22.1596V21.2084H127.059V26.4176H128.091V22.5572C129.193 21.4944 130.387 21.5355 130.387 22.8535V26.4176H131.424V22.6783C131.424 22.2417 131.274 21.8462 131.039 21.5629C130.28 20.6458 128.94 21.2097 128.091 22.1596ZM119.546 24.847H119.493L116.863 19.6618H115.704V26.4176H116.204V20.923H116.282L119.085 26.4176H119.318L122.087 20.884H122.125V26.4176H123.265V19.6618H122.125M132.661 21.3993V26.4176H133.689V21.1023H133.388M124.77 21.3993V26.4176H125.798V21.1023H125.497M186.939 18.8364V26.4176H187.971V18.5422H187.676M191.5 25.7893C191.209 25.9652 190.804 25.8687 190.663 25.5348C190.584 25.3541 190.634 25.4499 190.62 21.645H191.789V21.2084H190.62V19.4284H190.324C190.109 20.5391 189.82 21.3883 188.684 21.3883V21.645H189.587C189.606 25.3787 189.542 25.4171 189.646 25.8112C189.724 26.0925 189.88 26.3211 190.151 26.4422C190.47 26.588 191.065 26.5572 191.454 26.3204C191.684 26.1828 191.868 25.9933 192.007 25.7531L191.749 25.5779C191.678 25.6634 191.595 25.7339 191.5 25.7893ZM185.094 21.4801C184.555 21.0393 183.481 21.0393 182.849 21.1967C181.149 21.6149 181.376 22.9302 182.097 22.9302C182.492 22.9302 182.611 22.6284 182.611 22.2369C182.611 22.0412 182.647 21.8441 182.774 21.6942C183.013 21.4082 183.565 21.402 183.88 21.5122C184.161 21.6114 184.319 21.84 184.4 22.1233C184.491 22.4525 184.471 23.117 184.469 23.0479C183.715 23.2361 183.05 23.4133 182.391 23.7644C180.09 24.9996 181.989 27.7301 184.108 25.9905C184.225 25.8954 184.346 25.7989 184.469 25.7052V26.4176H185.508C185.477 22.3649 185.67 21.9536 185.094 21.4801ZM184.469 25.326C184.179 25.5437 183.91 25.751 183.565 25.853C182.704 26.1103 182.165 25.1864 182.48 24.6041C182.805 24.0012 183.821 23.5933 184.469 23.3818V25.326ZM196.891 22.0652C196.368 20.576 194.721 20.9743 193.665 22.1596V18.5422H193.37L192.633 18.8364V26.4176H193.665V22.5572C194.749 21.5047 195.96 21.5252 195.96 22.8535V26.4176H196.994C196.963 22.6503 197.068 22.5634 196.891 22.0652ZM156.019 21.9146C154.372 23.5988 155.427 26.5298 157.996 26.5298C160.468 26.5298 161.644 23.4366 159.965 21.8462C158.939 20.8806 157.102 20.8019 156.019 21.9146ZM159.48 24.9483C159.301 25.5738 158.84 26.1472 158.189 26.1472C156.323 26.1472 155.765 22.5538 157.239 21.6402C157.753 21.3213 158.696 21.4828 159.169 22.2807C159.59 22.9924 159.679 24.255 159.48 24.9483ZM149.706 24.9729L147.694 21.2138H146.515L149.182 26.1746C148.77 27.0951 148.619 27.5488 148.285 27.7951C148.117 27.919 147.874 27.8998 147.761 27.8519C147.597 27.7835 147.597 27.7534 147.423 27.6863C147.031 27.5399 146.548 27.7828 146.548 28.2181C146.548 29.0311 148.38 29.2651 149.241 27.3305L151.899 21.2138H151.346L149.706 24.9729ZM165.378 18.8009C164.78 18.4156 163.652 18.3807 162.937 19.1403C162.235 19.8849 162.39 20.756 162.37 21.2084H161.28V21.645H162.37V26.4176H163.408V21.645H164.801V21.2084H163.408C163.42 20.2222 163.319 19.6912 163.61 19.2491C163.722 19.0746 163.907 18.9227 164.126 18.9227C164.941 18.9227 164.459 19.9184 165.222 19.9184C165.835 19.9184 165.963 19.1745 165.378 18.8009ZM180.155 24.9366C179.923 25.2371 179.583 25.4855 179.162 25.6292C177.725 26.1383 176.675 24.9243 176.675 23.299H180.56C180.56 21.157 177.755 20.3427 176.383 21.9256C174.848 23.7144 175.901 26.5298 178.232 26.5298C179.314 26.5298 180.412 25.6456 180.7 24.5938L180.404 24.4638C180.357 24.6246 180.273 24.7827 180.155 24.9366ZM176.812 22.3266C177.436 20.8724 179.264 21.4766 179.264 22.8823L176.68 22.8768C176.695 22.679 176.739 22.4963 176.812 22.3266ZM173.332 22.7413H169.937V19.6618H168.802V26.4176H169.937V23.1786H173.332V26.4176H174.468V19.6618H173.332" fill="#9B945F"/>
<path d="M155.919 12.1874H152.251C152.259 12.119 152.454 11.1397 152.454 10.2665C152.454 5.9038 149.189 4.10398 145.996 6.36094C143.708 7.97461 143.233 9.53627 141.839 12.1874H141.781V7.84664H140.641V12.1874H137.32V11.7535C137.32 7.16503 134 5.53631 131.159 5.53631H126.781V6.50533C127.1 6.48138 130.823 6.47111 131.01 6.47111C136.485 6.47111 136.084 12.1183 136.107 12.1874H122.064V4.87797C121.73 4.83828 121.138 4.81159 120.88 4.81159C118.807 4.81159 115.74 6.30277 115.74 9.50479C115.74 11.7111 117.401 13.0291 119.506 13.0291H119.868C119.932 12.9607 120.717 12.119 120.653 12.1874H119.821C116.518 12.1874 116.158 8.26545 118.316 6.56761C119.088 5.96128 119.99 5.74708 120.527 5.74708H120.924V13.0291H157.06V0H155.919V12.1874ZM151.104 12.0416L151.068 12.1874H142.931L142.984 11.9527C143.694 8.78213 146.543 6.32261 148.522 6.32261C149.159 6.32261 151.239 6.62167 151.239 10.4704C151.239 10.7113 151.23 11.5352 151.104 12.0416Z" fill="#008755"/>
<path d="M121.327 3.00429C121.805 3.00429 122.193 2.6164 122.193 2.13791C122.193 1.65943 121.805 1.27153 121.327 1.27153C120.848 1.27153 120.461 1.65943 120.461 2.13791C120.461 2.6164 120.848 3.00429 121.327 3.00429Z" fill="#008755"/>
<path d="M160.658 0.000713348H161.797V13.0292H160.658V0.000713348Z" fill="#008755"/>
<path d="M170.463 3.0118C170.942 3.0118 171.33 2.62391 171.33 2.14543C171.33 1.66694 170.942 1.27906 170.463 1.27906C169.985 1.27906 169.597 1.66694 169.597 2.14543C169.597 2.62391 169.985 3.0118 170.463 3.0118Z" fill="#008755"/>
<path d="M118.736 3.00429C119.214 3.00429 119.602 2.6164 119.602 2.13791C119.602 1.65943 119.214 1.27153 118.736 1.27153C118.257 1.27153 117.869 1.65943 117.869 2.13791C117.869 2.6164 118.257 3.00429 118.736 3.00429Z" fill="#008755"/>
<path d="M187.845 3.01249C188.324 3.01249 188.712 2.62429 188.712 2.14543C188.712 1.66657 188.324 1.27837 187.845 1.27837C187.366 1.27837 186.978 1.66657 186.978 2.14543C186.978 2.62429 187.366 3.01249 187.845 3.01249Z" fill="#008755"/>
<path d="M196.261 5.0703C193.295 5.0703 190.972 7.09184 190.972 9.67249C190.972 11.9965 193.008 13.1845 195.018 13.0182C195.085 12.9491 195.894 12.1183 195.827 12.1874H195.072C193.635 12.1874 192.186 11.3697 192.186 9.54315C192.186 7.90826 193.698 6.08039 195.722 6.08039H195.914V13.2023C195.914 14.5662 195.659 15.8288 193.808 15.8288C193.649 15.8288 193.442 15.8069 193.223 15.7693L193.079 16.6398C193.353 16.6938 193.647 16.7253 194.105 16.7253C194.993 16.7253 197.053 16.429 197.053 13.6855V5.13669C196.736 5.0922 196.481 5.0703 196.261 5.0703ZM187.276 13.7416C187.276 15.2362 186.676 15.8452 185.208 15.8452C185.053 15.8452 184.821 15.8185 184.642 15.7878L184.499 16.7007C187.277 17.1017 188.415 15.8685 188.415 14.0933V6.03659H187.276V13.7416ZM177.635 13.7416C177.635 15.2362 177.035 15.8452 175.567 15.8452C175.412 15.8452 175.182 15.8185 175 15.7878L174.857 16.7007C177.64 17.1017 178.773 15.8644 178.773 14.0933V6.03659H177.635V13.7416Z" fill="#008755"/>
<path d="M173.055 3.0118C173.533 3.0118 173.921 2.62391 173.921 2.14543C173.921 1.66694 173.533 1.27906 173.055 1.27906C172.576 1.27906 172.188 1.66694 172.188 2.14543C172.188 2.62391 172.576 3.0118 173.055 3.0118Z" fill="#008755"/>
<path d="M182.26 0.000713348H183.399V13.0292H182.26V0.000713348ZM167.455 9.59789C167.455 11.553 169.074 13.0292 171.22 13.0292H173.778V4.878C170.059 4.36133 167.455 6.75309 167.455 9.59789ZM172.639 12.1874H171.554C167.245 12.1874 168.053 5.74711 172.224 5.74711H172.639V12.1874Z" fill="#008755"/>
<path d="M118.242 38.8195C117.193 38.8195 116.668 38.3537 116.668 37.422C116.668 36.9982 116.792 36.6505 117.04 36.3791C117.312 36.0822 117.692 35.9337 118.18 35.9337C118.62 35.9337 119.022 36.0041 119.387 36.1447V38.38H120.052V38.8195H118.242ZM118.845 36.5109C118.65 36.4171 118.409 36.3703 118.121 36.3703C117.844 36.3703 117.625 36.4611 117.465 36.6427C117.305 36.8224 117.225 37.0617 117.225 37.3605C117.225 38.0402 117.589 38.38 118.318 38.38H118.845V36.5109ZM118.576 35.4474C118.486 35.4474 118.41 35.4171 118.347 35.3566C118.285 35.2941 118.253 35.216 118.253 35.1222C118.253 35.0363 118.285 34.9621 118.347 34.8996C118.41 34.8371 118.486 34.8058 118.576 34.8058C118.663 34.8058 118.738 34.8361 118.798 34.8966C118.859 34.9591 118.889 35.0343 118.889 35.1222C118.889 35.214 118.859 35.2912 118.798 35.3537C118.738 35.4162 118.663 35.4474 118.576 35.4474ZM117.688 35.4474C117.598 35.4474 117.523 35.4171 117.462 35.3566C117.402 35.2941 117.371 35.216 117.371 35.1222C117.371 35.0363 117.402 34.9621 117.462 34.8996C117.523 34.8371 117.598 34.8058 117.688 34.8058C117.776 34.8058 117.851 34.8361 117.913 34.8966C117.976 34.9591 118.007 35.0343 118.007 35.1222C118.007 35.2121 117.976 35.2892 117.913 35.3537C117.851 35.4162 117.776 35.4474 117.688 35.4474ZM119.961 38.38H120.837V35.9982H121.388V38.38H122.32V38.8195H119.961V38.38ZM120.79 39.713C120.79 39.8029 120.759 39.8791 120.697 39.9416C120.634 40.006 120.559 40.0382 120.471 40.0382C120.381 40.0382 120.306 40.007 120.245 39.9445C120.185 39.8839 120.155 39.8068 120.155 39.713C120.155 39.6252 120.185 39.5509 120.245 39.4904C120.306 39.4279 120.381 39.3966 120.471 39.3966C120.559 39.3966 120.634 39.4269 120.697 39.4875C120.759 39.548 120.79 39.6232 120.79 39.713ZM121.672 39.713C121.672 39.8029 121.642 39.8791 121.581 39.9416C121.521 40.006 121.447 40.0382 121.359 40.0382C121.269 40.0382 121.193 40.007 121.13 39.9445C121.068 39.882 121.036 39.8048 121.036 39.713C121.036 39.6252 121.068 39.5509 121.13 39.4904C121.193 39.4279 121.269 39.3966 121.359 39.3966C121.447 39.3966 121.521 39.4269 121.581 39.4875C121.642 39.548 121.672 39.6232 121.672 39.713ZM122.235 38.38H122.493C122.715 38.38 122.872 38.3224 122.964 38.2072C123.062 38.0841 123.111 37.8683 123.111 37.5597V36.3586H123.661V37.4513C123.661 37.8087 123.686 38.048 123.735 38.1691C123.803 38.339 123.947 38.424 124.165 38.424C124.578 38.424 124.784 38.1017 124.784 37.4572V36.1183H125.32V37.6564C125.32 37.9611 125.384 38.1613 125.513 38.257C125.626 38.339 125.854 38.38 126.196 38.38H126.392C126.425 38.1066 126.442 37.8293 126.442 37.548C126.442 36.9503 126.375 36.3986 126.243 35.8927L126.776 35.7961C126.92 36.3097 126.993 36.8771 126.993 37.4982C126.993 37.9494 126.96 38.3898 126.896 38.8195H126.213C125.83 38.8195 125.552 38.7863 125.378 38.7199C125.197 38.6515 125.063 38.5246 124.977 38.339C124.844 38.6867 124.542 38.8605 124.072 38.8605C123.65 38.8605 123.391 38.6886 123.295 38.3449C123.18 38.6613 122.912 38.8195 122.493 38.8195H122.235V38.38ZM127.789 38.38H129.714C129.706 37.8273 129.585 37.3918 129.351 37.0734C129.113 36.7511 128.73 36.5089 128.203 36.3468L128.34 35.8781C128.987 36.0793 129.46 36.3693 129.761 36.7482C130.078 37.1466 130.245 37.6906 130.262 38.38H130.722V38.8195H127.789V38.38ZM130.643 38.38H131.519V35.9982H132.07V38.38H132.738V38.8195H130.643V38.38ZM131.794 35.3566C131.704 35.3566 131.628 35.3253 131.566 35.2628C131.503 35.2003 131.472 35.1242 131.472 35.0343C131.472 34.9425 131.503 34.8644 131.566 34.8C131.628 34.7355 131.704 34.7033 131.794 34.7033C131.886 34.7033 131.964 34.7355 132.029 34.8C132.093 34.8625 132.125 34.9406 132.125 35.0343C132.125 35.1242 132.093 35.2003 132.029 35.2628C131.962 35.3253 131.884 35.3566 131.794 35.3566ZM132.647 38.38H133.338C133.389 38.38 133.444 38.3839 133.502 38.3918L133.576 38.4005C133.421 38.3224 133.344 38.1457 133.344 37.8703C133.344 37.5695 133.445 37.3293 133.646 37.1496C133.847 36.9699 134.116 36.88 134.452 36.88C135.161 36.88 135.515 37.3009 135.515 38.1427V38.38H136.265V38.2628C136.265 37.5246 136.12 36.9894 135.828 36.6574C135.543 36.3312 135.089 36.1681 134.466 36.1681C134.036 36.1681 133.612 36.2375 133.192 36.3761L133.133 35.9689C133.6 35.8244 134.07 35.7521 134.542 35.7521C135.288 35.7521 135.845 35.9455 136.212 36.3322C136.603 36.7423 136.798 37.3859 136.798 38.2628V38.38H137.326V38.8195H132.647V38.38ZM135.029 38.1603C135.029 37.5548 134.823 37.2521 134.411 37.2521C134.022 37.2521 133.828 37.4347 133.828 37.8C133.828 37.9972 133.895 38.1486 134.03 38.2541C134.149 38.3478 134.306 38.3947 134.501 38.3947H135.029V38.1603ZM137.235 38.38H138.076V34.589H138.626V38.8195H137.235V38.38ZM139.766 34.589H140.317V38.8195H139.766V34.589ZM145.453 38.5148C145.453 39.6418 144.924 40.2052 143.868 40.2052C143.418 40.2052 143.066 40.0802 142.81 39.8302C142.519 39.5451 142.373 39.1125 142.373 38.5324C142.373 38.1398 142.423 37.7599 142.523 37.3927L143.094 37.2843C142.981 37.673 142.924 38.0705 142.924 38.4767C142.924 38.9455 143.032 39.2892 143.246 39.508C143.416 39.6818 143.641 39.7687 143.92 39.7687C144.573 39.7687 144.899 39.3625 144.899 38.55V35.9982H145.453V38.5148ZM143.903 36.5812C143.813 36.5812 143.737 36.55 143.674 36.4875C143.612 36.425 143.58 36.3488 143.58 36.2589C143.58 36.1671 143.612 36.089 143.674 36.0246C143.737 35.9601 143.813 35.9279 143.903 35.9279C143.995 35.9279 144.073 35.9591 144.137 36.0216C144.202 36.0861 144.234 36.1652 144.234 36.2589C144.234 36.3468 144.202 36.423 144.137 36.4875C144.073 36.55 143.995 36.5812 143.903 36.5812ZM147.073 40.3371C146.764 40.3371 146.452 40.3068 146.135 40.2462L146.173 39.7863C146.509 39.8625 146.828 39.9005 147.131 39.9005C147.895 39.9005 148.277 39.588 148.277 38.963V38.8195H147.673C146.624 38.8195 146.1 38.3537 146.1 37.422C146.1 36.9982 146.224 36.6505 146.472 36.3791C146.744 36.0822 147.123 35.9337 147.612 35.9337C148.051 35.9337 148.453 36.0041 148.819 36.1447V38.9337C148.819 39.3283 148.689 39.6496 148.429 39.8976C148.122 40.1906 147.67 40.3371 147.073 40.3371ZM148.277 36.5109C148.081 36.4171 147.84 36.3703 147.553 36.3703C147.276 36.3703 147.057 36.4611 146.897 36.6427C146.737 36.8224 146.657 37.0617 146.657 37.3605C146.657 38.0402 147.021 38.38 147.749 38.38H148.277V36.5109ZM150.465 40.3371C150.157 40.3371 149.844 40.3068 149.528 40.2462L149.566 39.7863C149.902 39.8625 150.221 39.9005 150.524 39.9005C151.287 39.9005 151.669 39.588 151.669 38.963V38.8195H151.066C150.017 38.8195 149.493 38.3537 149.493 37.422C149.493 36.9982 149.617 36.6505 149.865 36.3791C150.136 36.0822 150.516 35.9337 151.004 35.9337C151.444 35.9337 151.846 36.0041 152.211 36.1447V38.38H152.876V38.8195H152.211V38.9337C152.211 39.3283 152.081 39.6496 151.822 39.8976C151.515 40.1906 151.063 40.3371 150.465 40.3371ZM151.669 36.5109C151.474 36.4171 151.233 36.3703 150.946 36.3703C150.668 36.3703 150.45 36.4611 150.289 36.6427C150.129 36.8224 150.049 37.0617 150.049 37.3605C150.049 38.0402 150.413 38.38 151.142 38.38H151.669V36.5109ZM150.175 35.0988C150.345 35.0988 150.484 35.1086 150.591 35.1281C150.482 35.0812 150.427 34.9855 150.427 34.841C150.427 34.6769 150.486 34.5412 150.603 34.4337C150.738 34.3087 150.934 34.2462 151.192 34.2462C151.319 34.2462 151.426 34.255 151.514 34.2726L151.461 34.6066C151.317 34.591 151.22 34.5832 151.171 34.5832C150.949 34.5832 150.837 34.6652 150.837 34.8293C150.837 35.0089 150.993 35.0988 151.303 35.0988H151.628V35.4416H150.175V35.0988ZM156.764 38.8195C156.381 38.8195 156.103 38.7863 155.929 38.7199C155.747 38.6515 155.614 38.5246 155.528 38.339C155.395 38.6867 155.093 38.8605 154.622 38.8605C154.201 38.8605 153.942 38.6886 153.846 38.3449C153.731 38.6613 153.463 38.8195 153.043 38.8195H152.786V38.38H153.043C153.266 38.38 153.423 38.3224 153.515 38.2072C153.613 38.0841 153.661 37.8683 153.661 37.5597V36.3586H154.212V37.4513C154.212 37.8087 154.237 38.048 154.286 38.1691C154.354 38.339 154.497 38.424 154.716 38.424C155.128 38.424 155.334 38.1017 155.334 37.4572V36.1183H155.87V37.6564C155.87 37.9611 155.935 38.1613 156.064 38.257C156.177 38.339 156.405 38.38 156.746 38.38H156.943C156.976 38.1066 156.993 37.8293 156.993 37.548C156.993 36.9503 156.926 36.3986 156.793 35.8927L157.327 35.7961C157.471 36.3097 157.543 36.8771 157.543 37.4982C157.543 37.7443 157.53 38.0382 157.502 38.38H158.161V38.8195H156.764ZM155.138 35.4474C155.048 35.4474 154.973 35.4171 154.912 35.3566C154.85 35.2941 154.819 35.216 154.819 35.1222C154.819 35.0363 154.85 34.9621 154.912 34.8996C154.973 34.8371 155.048 34.8058 155.138 34.8058C155.228 34.8058 155.303 34.8361 155.364 34.8966C155.424 34.9572 155.454 35.0324 155.454 35.1222C155.454 35.214 155.424 35.2912 155.364 35.3537C155.303 35.4162 155.228 35.4474 155.138 35.4474ZM156.026 35.4474C155.936 35.4474 155.861 35.4171 155.8 35.3566C155.738 35.2941 155.706 35.216 155.706 35.1222C155.706 35.0363 155.738 34.9621 155.8 34.8996C155.861 34.8371 155.936 34.8058 156.026 34.8058C156.114 34.8058 156.188 34.8361 156.248 34.8966C156.311 34.9591 156.342 35.0343 156.342 35.1222C156.342 35.2121 156.311 35.2892 156.248 35.3537C156.188 35.4162 156.114 35.4474 156.026 35.4474ZM155.58 34.7326C155.495 34.7326 155.422 34.7033 155.364 34.6447C155.305 34.5861 155.276 34.5138 155.276 34.4279C155.276 34.34 155.305 34.2658 155.364 34.2052C155.422 34.1447 155.495 34.1144 155.58 34.1144C155.664 34.1144 155.736 34.1447 155.794 34.2052C155.853 34.2658 155.882 34.34 155.882 34.4279C155.882 34.5119 155.853 34.5841 155.794 34.6447C155.736 34.7033 155.664 34.7326 155.58 34.7326ZM158.077 38.38H158.917V34.589H159.468V38.8195H158.077V38.38ZM160.608 34.589H161.159V38.8195H160.608V34.589ZM162.711 40.3371C162.403 40.3371 162.09 40.3068 161.774 40.2462L161.812 39.7863C162.148 39.8625 162.467 39.9005 162.77 39.9005C163.534 39.9005 163.915 39.588 163.915 38.963V38.8195H163.312C162.263 38.8195 161.739 38.3537 161.739 37.422C161.739 36.9982 161.863 36.6505 162.111 36.3791C162.382 36.0822 162.762 35.9337 163.25 35.9337C163.69 35.9337 164.092 36.0041 164.457 36.1447V38.9337C164.457 39.3283 164.328 39.6496 164.068 39.8976C163.761 40.1906 163.309 40.3371 162.711 40.3371ZM163.915 36.5109C163.72 36.4171 163.479 36.3703 163.192 36.3703C162.914 36.3703 162.696 36.4611 162.536 36.6427C162.375 36.8224 162.295 37.0617 162.295 37.3605C162.295 38.0402 162.66 38.38 163.388 38.38H163.915V36.5109ZM166.461 38.38H168.386C168.378 37.8273 168.257 37.3918 168.023 37.0734C167.785 36.7511 167.402 36.5089 166.874 36.3468L167.012 35.8781C167.678 36.0851 168.161 36.3878 168.462 36.7863C168.777 37.2043 168.934 37.7824 168.934 38.5207V38.8195H166.461V38.38ZM169.883 34.589H170.434V38.8195H169.883V34.589ZM171.319 38.38H173.244C173.236 37.8273 173.115 37.3918 172.88 37.0734C172.642 36.7511 172.259 36.5089 171.732 36.3468L171.87 35.8781C172.516 36.0793 172.99 36.3693 173.29 36.7482C173.607 37.1466 173.774 37.6906 173.791 38.38H174.251V38.8195H171.319V38.38ZM174.172 38.8195V38.38H174.647C174.786 38.38 174.902 38.3908 174.995 38.4123C174.699 38.2248 174.55 37.8869 174.55 37.3986C174.55 36.9845 174.676 36.6427 174.928 36.3732C175.2 36.0802 175.574 35.9337 176.05 35.9337C176.906 35.9337 177.333 36.382 177.333 37.2785V38.8195H174.172ZM176.794 37.3722C176.794 36.7043 176.531 36.3703 176.003 36.3703C175.726 36.3703 175.507 36.4621 175.347 36.6457C175.187 36.8234 175.107 37.0636 175.107 37.3664C175.107 38.0421 175.471 38.38 176.2 38.38H176.794V37.3722ZM179.264 37.841H178.707L177.752 34.63L178.303 34.5539L179.264 37.841ZM178.01 38.8195V38.38H179.865V34.589H180.421V38.8195H178.01ZM181.561 34.589H182.112V38.8195H181.561V34.589ZM185.701 38.8195C184.652 38.8195 184.127 38.3537 184.127 37.422C184.127 36.9982 184.251 36.6505 184.499 36.3791C184.771 36.0822 185.151 35.9337 185.639 35.9337C186.078 35.9337 186.481 36.0041 186.846 36.1447V38.38H187.511V38.8195H185.701ZM186.304 36.5109C186.109 36.4171 185.868 36.3703 185.58 36.3703C185.303 36.3703 185.084 36.4611 184.924 36.6427C184.764 36.8224 184.684 37.0617 184.684 37.3605C184.684 38.0402 185.048 38.38 185.777 38.38H186.304V36.5109ZM186.035 35.4474C185.945 35.4474 185.869 35.4171 185.806 35.3566C185.744 35.2941 185.712 35.216 185.712 35.1222C185.712 35.0363 185.744 34.9621 185.806 34.8996C185.869 34.8371 185.945 34.8058 186.035 34.8058C186.122 34.8058 186.197 34.8361 186.257 34.8966C186.318 34.9591 186.348 35.0343 186.348 35.1222C186.348 35.214 186.318 35.2912 186.257 35.3537C186.197 35.4162 186.122 35.4474 186.035 35.4474ZM185.147 35.4474C185.057 35.4474 184.982 35.4171 184.921 35.3566C184.861 35.2941 184.83 35.216 184.83 35.1222C184.83 35.0363 184.861 34.9621 184.921 34.8996C184.982 34.8371 185.057 34.8058 185.147 34.8058C185.235 34.8058 185.31 34.8361 185.372 34.8966C185.435 34.9591 185.466 35.0343 185.466 35.1222C185.466 35.2121 185.435 35.2892 185.372 35.3537C185.31 35.4162 185.235 35.4474 185.147 35.4474ZM187.42 38.38H188.261V34.589H188.812V38.8195H187.42V38.38ZM189.952 34.589H190.502V38.38H191.164V38.8195H189.952V34.589ZM191.077 38.38H193.001C192.994 37.8039 192.861 37.3527 192.603 37.0265C192.357 36.714 191.966 36.4816 191.431 36.3293V35.922L193.704 34.4923V35.0519L192.073 36.0539C192.565 36.255 192.928 36.5363 193.162 36.8976C193.42 37.298 193.549 37.8371 193.549 38.5148V38.8195H191.077V38.38ZM194.786 40.3371C194.477 40.3371 194.164 40.3068 193.848 40.2462L193.886 39.7863C194.222 39.8625 194.541 39.9005 194.844 39.9005C195.608 39.9005 195.99 39.588 195.99 38.963V38.8195H195.386C194.337 38.8195 193.813 38.3537 193.813 37.422C193.813 36.9982 193.937 36.6505 194.185 36.3791C194.456 36.0822 194.836 35.9337 195.325 35.9337C195.764 35.9337 196.166 36.0041 196.532 36.1447V38.9337C196.532 39.3283 196.402 39.6496 196.142 39.8976C195.835 40.1906 195.383 40.3371 194.786 40.3371ZM195.99 36.5109C195.794 36.4171 195.553 36.3703 195.266 36.3703C194.989 36.3703 194.77 36.4611 194.61 36.6427C194.45 36.8224 194.37 37.0617 194.37 37.3605C194.37 38.0402 194.734 38.38 195.462 38.38H195.99V36.5109Z" fill="#1B8354"/>
<path d="M121.16 52.8195C120.417 52.8195 119.876 52.6711 119.536 52.3742C119.214 52.0929 119.053 51.6593 119.053 51.0734C119.053 50.6945 119.12 50.3625 119.252 50.0773L119.838 49.9748C119.686 50.2853 119.61 50.63 119.61 51.0089C119.61 51.4855 119.722 51.8283 119.947 52.0373C120.195 52.2658 120.62 52.38 121.224 52.38H122.246V49.9982H122.797V52.8195H121.16ZM121.537 49.4474C121.446 49.4474 121.37 49.4171 121.309 49.3566C121.245 49.2941 121.212 49.216 121.212 49.1222C121.212 49.0363 121.245 48.9621 121.309 48.8996C121.371 48.8371 121.448 48.8058 121.537 48.8058C121.625 48.8058 121.699 48.8361 121.757 48.8966C121.818 48.9591 121.848 49.0343 121.848 49.1222C121.848 49.214 121.818 49.2912 121.757 49.3537C121.697 49.4162 121.623 49.4474 121.537 49.4474ZM120.65 49.4474C120.56 49.4474 120.484 49.4171 120.421 49.3566C120.361 49.2941 120.33 49.216 120.33 49.1222C120.33 49.0363 120.361 48.9621 120.421 48.8996C120.484 48.8371 120.56 48.8058 120.65 48.8058C120.738 48.8058 120.812 48.8361 120.872 48.8966C120.935 48.9591 120.966 49.0343 120.966 49.1222C120.966 49.2121 120.935 49.2892 120.872 49.3537C120.81 49.4162 120.736 49.4474 120.65 49.4474ZM123.893 48.589H124.444V52.38H125.106V52.8195H123.893V48.589ZM125.018 52.38H126.943C126.935 51.8039 126.802 51.3527 126.544 51.0265C126.298 50.714 125.908 50.4816 125.372 50.3293V49.922L127.646 48.4923V49.0519L126.014 50.0539C126.491 50.2492 126.845 50.5187 127.078 50.8625C127.335 51.2414 127.473 51.7472 127.491 52.38H128.041V52.8195H125.018V52.38ZM127.953 52.38H128.794V48.589H129.345V52.38H130.004V52.8195H127.953V52.38ZM129.916 52.38H130.792V49.9982H131.343V52.38H131.961V52.8195H129.916V52.38ZM130.529 49.4474C130.439 49.4474 130.364 49.4171 130.303 49.3566C130.241 49.2941 130.209 49.216 130.209 49.1222C130.209 49.0363 130.241 48.9621 130.303 48.8996C130.364 48.8371 130.439 48.8058 130.529 48.8058C130.617 48.8058 130.691 48.8361 130.751 48.8966C130.814 48.9591 130.845 49.0343 130.845 49.1222C130.845 49.2121 130.814 49.2892 130.751 49.3537C130.691 49.4162 130.617 49.4474 130.529 49.4474ZM131.416 49.4474C131.327 49.4474 131.25 49.4171 131.188 49.3566C131.123 49.2941 131.091 49.216 131.091 49.1222C131.091 49.0363 131.123 48.9621 131.188 48.8996C131.25 48.8371 131.327 48.8058 131.416 48.8058C131.504 48.8058 131.578 48.8361 131.639 48.8966C131.698 48.9591 131.727 49.0343 131.727 49.1222C131.727 49.214 131.698 49.2912 131.639 49.3537C131.578 49.4162 131.504 49.4474 131.416 49.4474ZM134.15 52.8195C133.453 52.8195 132.991 52.631 132.764 52.2541C132.659 52.631 132.353 52.8195 131.847 52.8195H131.756V52.38C131.998 52.38 132.176 52.3166 132.289 52.1896C132.426 52.0373 132.495 51.7736 132.495 51.3986C132.495 50.9845 132.62 50.6427 132.87 50.3732C133.143 50.0802 133.518 49.9337 133.995 49.9337C134.85 49.9337 135.278 50.382 135.278 51.2785V52.38H135.878V52.8195H134.15ZM134.739 51.3722C134.739 50.7043 134.475 50.3703 133.948 50.3703C133.67 50.3703 133.452 50.4621 133.291 50.6457C133.131 50.8234 133.051 51.0636 133.051 51.3664C133.051 52.0421 133.415 52.38 134.144 52.38H134.739V51.3722ZM138.653 51.3722C138.653 50.7043 138.389 50.3703 137.862 50.3703C137.584 50.3703 137.366 50.4621 137.205 50.6457C137.045 50.8234 136.965 51.0636 136.965 51.3664C136.965 52.0421 137.329 52.38 138.058 52.38H138.653V51.3722ZM138.064 52.8195C137.367 52.8195 136.905 52.631 136.678 52.2541C136.573 52.631 136.267 52.8195 135.761 52.8195H135.67V52.38C135.912 52.38 136.09 52.3166 136.203 52.1896C136.34 52.0373 136.409 51.7736 136.409 51.3986C136.409 50.9845 136.534 50.6427 136.784 50.3732C137.057 50.0802 137.432 49.9337 137.909 49.9337C138.764 49.9337 139.192 50.382 139.192 51.2785V52.38H140.437V48.589H140.988V52.8195H138.064ZM142.127 48.589H142.678V52.8195H142.127V48.589ZM146.267 52.8195C145.218 52.8195 144.694 52.3537 144.694 51.422C144.694 50.9982 144.818 50.6505 145.066 50.3791C145.337 50.0822 145.717 49.9337 146.205 49.9337C146.645 49.9337 147.047 50.0041 147.412 50.1447V52.38H148.078V52.8195H146.267ZM146.87 50.5109C146.675 50.4171 146.434 50.3703 146.147 50.3703C145.87 50.3703 145.651 50.4611 145.491 50.6427C145.33 50.8224 145.25 51.0617 145.25 51.3605C145.25 52.0402 145.615 52.38 146.343 52.38H146.87V50.5109ZM146.601 49.4474C146.511 49.4474 146.435 49.4171 146.372 49.3566C146.31 49.2941 146.279 49.216 146.279 49.1222C146.279 49.0363 146.31 48.9621 146.372 48.8996C146.435 48.8371 146.511 48.8058 146.601 48.8058C146.689 48.8058 146.763 48.8361 146.824 48.8966C146.884 48.9591 146.914 49.0343 146.914 49.1222C146.914 49.214 146.884 49.2912 146.824 49.3537C146.763 49.4162 146.689 49.4474 146.601 49.4474ZM145.713 49.4474C145.623 49.4474 145.548 49.4171 145.488 49.3566C145.427 49.2941 145.397 49.216 145.397 49.1222C145.397 49.0363 145.427 48.9621 145.488 48.8996C145.548 48.8371 145.623 48.8058 145.713 48.8058C145.801 48.8058 145.876 48.8361 145.939 48.8966C146.001 48.9591 146.033 49.0343 146.033 49.1222C146.033 49.2121 146.001 49.2892 145.939 49.3537C145.876 49.4162 145.801 49.4474 145.713 49.4474ZM147.987 52.38H148.186C148.823 52.38 149.369 52.2765 149.824 52.0695C149.201 51.4836 148.72 51.1359 148.382 51.0265L148.432 50.6427C149.065 50.1623 149.642 49.922 150.163 49.922C150.548 49.922 150.844 50.0158 151.051 50.2033C151.233 50.3712 151.324 50.5871 151.324 50.8507C151.324 51.3078 151.083 51.7218 150.603 52.0929C150.88 52.2843 151.168 52.38 151.467 52.38H151.833V52.8195H151.388C150.954 52.8195 150.548 52.6711 150.169 52.3742C149.605 52.6711 148.927 52.8195 148.136 52.8195H147.987V52.38ZM148.948 50.8156C149.166 50.8996 149.6 51.2316 150.248 51.8117C150.596 51.55 150.77 51.2541 150.77 50.924C150.77 50.7502 150.717 50.6115 150.612 50.508C150.495 50.3927 150.326 50.3351 150.105 50.3351C149.786 50.3351 149.401 50.4953 148.948 50.8156ZM151.743 52.38H152.619V49.9982H153.169V52.8195H151.743V52.38ZM152.493 54.0441C152.403 54.0441 152.327 54.0128 152.264 53.9503C152.2 53.8878 152.167 53.8107 152.167 53.7189C152.167 53.6291 152.2 53.5529 152.264 53.4904C152.327 53.4279 152.403 53.3966 152.493 53.3966C152.584 53.3966 152.661 53.4269 152.724 53.4875C152.79 53.55 152.824 53.6271 152.824 53.7189C152.824 53.8087 152.79 53.8859 152.724 53.9503C152.66 54.0128 152.582 54.0441 152.493 54.0441ZM154.268 48.589H154.819V52.38H155.481V52.8195H154.268V48.589ZM155.393 52.38H156.269V49.9982H156.82V52.38H157.438V52.8195H155.393V52.38ZM156.005 49.4474C155.915 49.4474 155.84 49.4171 155.78 49.3566C155.717 49.2941 155.686 49.216 155.686 49.1222C155.686 49.0363 155.717 48.9621 155.78 48.8996C155.84 48.8371 155.915 48.8058 156.005 48.8058C156.093 48.8058 156.167 48.8361 156.228 48.8966C156.29 48.9591 156.322 49.0343 156.322 49.1222C156.322 49.2121 156.29 49.2892 156.228 49.3537C156.167 49.4162 156.093 49.4474 156.005 49.4474ZM156.893 49.4474C156.803 49.4474 156.727 49.4171 156.664 49.3566C156.6 49.2941 156.568 49.216 156.568 49.1222C156.568 49.0363 156.6 48.9621 156.664 48.8996C156.727 48.8371 156.803 48.8058 156.893 48.8058C156.981 48.8058 157.055 48.8361 157.116 48.8966C157.174 48.9591 157.203 49.0343 157.203 49.1222C157.203 49.214 157.174 49.2912 157.116 49.3537C157.055 49.4162 156.981 49.4474 156.893 49.4474ZM160.215 51.3722C160.215 50.7043 159.952 50.3703 159.424 50.3703C159.147 50.3703 158.928 50.4621 158.768 50.6457C158.608 50.8234 158.528 51.0636 158.528 51.3664C158.528 52.0421 158.892 52.38 159.62 52.38H160.215V51.3722ZM159.626 52.8195C158.929 52.8195 158.467 52.631 158.241 52.2541C158.135 52.631 157.829 52.8195 157.324 52.8195H157.233V52.38C157.475 52.38 157.653 52.3166 157.766 52.1896C157.903 52.0373 157.971 51.7736 157.971 51.3986C157.971 50.9845 158.096 50.6427 158.346 50.3732C158.62 50.0802 158.995 49.9337 159.471 49.9337C160.327 49.9337 160.754 50.382 160.754 51.2785V52.38H161.999V48.589H162.55V52.8195H159.626ZM166.136 52.8195C165.087 52.8195 164.563 52.3537 164.563 51.422C164.563 50.9982 164.687 50.6505 164.935 50.3791C165.206 50.0822 165.586 49.9337 166.075 49.9337C166.514 49.9337 166.916 50.0041 167.282 50.1447V52.38H167.947V52.8195H166.136ZM166.74 50.5109C166.544 50.4171 166.303 50.3703 166.016 50.3703C165.739 50.3703 165.52 50.4611 165.36 50.6427C165.2 50.8224 165.12 51.0617 165.12 51.3605C165.12 52.0402 165.484 52.38 166.212 52.38H166.74V50.5109ZM166.47 49.4474C166.38 49.4474 166.304 49.4171 166.242 49.3566C166.179 49.2941 166.148 49.216 166.148 49.1222C166.148 49.0363 166.179 48.9621 166.242 48.8996C166.304 48.8371 166.38 48.8058 166.47 48.8058C166.558 48.8058 166.632 48.8361 166.693 48.8966C166.753 48.9591 166.784 49.0343 166.784 49.1222C166.784 49.214 166.753 49.2912 166.693 49.3537C166.632 49.4162 166.558 49.4474 166.47 49.4474ZM165.582 49.4474C165.493 49.4474 165.417 49.4171 165.357 49.3566C165.296 49.2941 165.266 49.216 165.266 49.1222C165.266 49.0363 165.296 48.9621 165.357 48.8996C165.417 48.8371 165.493 48.8058 165.582 48.8058C165.67 48.8058 165.745 48.8361 165.808 48.8966C165.87 48.9591 165.902 49.0343 165.902 49.1222C165.902 49.2121 165.87 49.2892 165.808 49.3537C165.745 49.4162 165.67 49.4474 165.582 49.4474ZM167.856 52.8195V52.38H168.33C168.469 52.38 168.585 52.3908 168.679 52.4123C168.382 52.2248 168.234 51.8869 168.234 51.3986C168.234 50.9845 168.36 50.6427 168.612 50.3732C168.883 50.0802 169.257 49.9337 169.734 49.9337C170.589 49.9337 171.017 50.382 171.017 51.2785V52.8195H167.856ZM170.478 51.3722C170.478 50.7043 170.214 50.3703 169.687 50.3703C169.41 50.3703 169.191 50.4621 169.031 50.6457C168.87 50.8234 168.79 51.0636 168.79 51.3664C168.79 52.0421 169.155 52.38 169.883 52.38H170.478V51.3722ZM172.098 48.589H172.649V52.38H173.311V52.8195H172.098V48.589ZM173.223 52.38H173.422C174.059 52.38 174.605 52.2765 175.06 52.0695C174.437 51.4836 173.956 51.1359 173.619 51.0265L173.668 50.6427C174.301 50.1623 174.878 49.922 175.4 49.922C175.785 49.922 176.08 50.0158 176.287 50.2033C176.469 50.3712 176.56 50.5871 176.56 50.8507C176.56 51.3078 176.32 51.7218 175.839 52.0929C176.117 52.2843 176.405 52.38 176.703 52.38H177.07V52.8195H176.624C176.191 52.8195 175.785 52.6711 175.406 52.3742C174.841 52.6711 174.163 52.8195 173.372 52.8195H173.223V52.38ZM174.184 50.8156C174.403 50.8996 174.836 51.2316 175.485 51.8117C175.832 51.55 176.006 51.2541 176.006 50.924C176.006 50.7502 175.953 50.6115 175.848 50.508C175.731 50.3927 175.562 50.3351 175.341 50.3351C175.023 50.3351 174.637 50.4953 174.184 50.8156ZM176.979 52.38H177.82V48.589H178.37V52.8195H176.979V52.38ZM179.51 48.589H180.061V52.8195H179.51V48.589ZM183.65 52.8195C182.601 52.8195 182.077 52.3537 182.077 51.422C182.077 50.9962 182.203 50.6476 182.454 50.3761C182.726 50.0812 183.1 49.9337 183.577 49.9337C184.432 49.9337 184.86 50.382 184.86 51.2785V52.8195H183.65ZM184.321 51.3722C184.321 50.7043 184.057 50.3703 183.53 50.3703C183.252 50.3703 183.034 50.4621 182.873 50.6457C182.713 50.8234 182.633 51.0636 182.633 51.3664C182.633 52.0421 182.997 52.38 183.726 52.38H184.321V51.3722ZM183.984 49.4474C183.894 49.4474 183.818 49.4171 183.755 49.3566C183.693 49.2941 183.661 49.216 183.661 49.1222C183.661 49.0363 183.693 48.9621 183.755 48.8996C183.818 48.8371 183.894 48.8058 183.984 48.8058C184.072 48.8058 184.146 48.8361 184.206 48.8966C184.267 48.9591 184.297 49.0343 184.297 49.1222C184.297 49.214 184.267 49.2912 184.206 49.3537C184.146 49.4162 184.072 49.4474 183.984 49.4474ZM183.096 49.4474C183.006 49.4474 182.931 49.4171 182.87 49.3566C182.81 49.2941 182.78 49.216 182.78 49.1222C182.78 49.0363 182.81 48.9621 182.87 48.8996C182.931 48.8371 183.006 48.8058 183.096 48.8058C183.184 48.8058 183.259 48.8361 183.322 48.8966C183.384 48.9591 183.415 49.0343 183.415 49.1222C183.415 49.2121 183.384 49.2892 183.322 49.3537C183.259 49.4162 183.184 49.4474 183.096 49.4474ZM185.413 54.3605C185.208 54.3605 185 54.3332 184.789 54.2785L184.848 53.8214C185.034 53.8898 185.236 53.924 185.454 53.924C185.72 53.924 185.915 53.8507 186.04 53.7043C186.183 53.5421 186.254 53.2736 186.254 52.8986V49.9982H186.805V52.8488C186.805 53.8566 186.341 54.3605 185.413 54.3605ZM187.895 48.589H188.446V52.8195H187.895V48.589ZM189.33 52.38H191.255C191.247 51.8273 191.126 51.3918 190.892 51.0734C190.654 50.7511 190.271 50.5089 189.744 50.3468L189.881 49.8781C190.547 50.0851 191.031 50.3878 191.331 50.7863C191.646 51.2043 191.803 51.7824 191.803 52.5207V52.8195H189.33V52.38ZM193.631 51.841H193.075L192.12 48.63L192.67 48.5539L193.631 51.841ZM192.377 52.8195V52.38H194.232V48.589H194.788V52.8195H192.377ZM192.749 54.0089C192.925 54.0089 193.045 54.0148 193.11 54.0265C193.03 53.9777 192.99 53.8976 192.99 53.7863C192.99 53.6418 193.049 53.5216 193.168 53.4259C193.297 53.3224 193.472 53.2707 193.693 53.2707C193.808 53.2707 193.917 53.2824 194.021 53.3058L193.968 53.6222C193.872 53.5988 193.776 53.5871 193.678 53.5871C193.487 53.5871 193.391 53.6554 193.391 53.7921C193.391 53.9367 193.525 54.0089 193.792 54.0089H194.153V54.3253H192.749V54.0089ZM195.928 48.589H196.479V52.8195H195.928V48.589Z" fill="#1B8354"/>
<path fill-rule="evenodd" clip-rule="evenodd" d="M270.707 28.8684C258.564 30.6187 232.11 53.4471 232.11 53.4471H242.918C249.789 45.7232 260.064 37.4939 265.508 34.2055C269.865 31.575 272.978 31.446 272.978 31.446C279.778 30.8159 285.588 36.4264 284.834 43.5633C285.724 35.1358 281.528 27.3107 270.707 28.8684Z" fill="#9B945F"/>
<path fill-rule="evenodd" clip-rule="evenodd" d="M220.295 28.8684C209.474 27.3107 205.276 35.1358 206.17 43.5633C205.408 36.4139 211.258 30.8186 218.024 31.446C218.024 31.446 221.137 31.575 225.495 34.2055C230.525 37.2447 240.917 45.3907 248.085 53.4471H258.892C258.892 53.4471 232.439 30.6187 220.295 28.8684Z" fill="#9B945F"/>
<path d="M219.459 36.1961L216.222 39.436L212.983 36.1961L209.293 39.8824L212.983 43.5686L216.222 40.3296L219.459 43.5686L223.147 39.8824M253.555 8.19815C256.904 8.38995 260.138 9.85442 262.491 12.4383C259.76 6.07314 252.569 3.01962 246.165 5.26293C245.838 4.06644 245.581 3.37095 245.581 3.37095C245.581 3.37095 245.321 4.06644 244.995 5.26293C238.569 3.01066 231.38 6.10182 228.671 12.4383C231.021 9.85442 234.258 8.38995 237.605 8.19815C233.719 11.1952 231.881 16.0305 232.678 20.7367C233.317 16.9196 235.612 13.6644 238.794 11.7267C236.374 16.5485 237.114 22.3714 240.813 26.4341C238.64 21.408 239.854 15.5295 243.82 11.7742C243.73 12.7475 243.675 13.7728 243.675 14.8286C243.675 21.1588 245.581 26.2872 245.581 26.2872C245.594 26.1921 248.07 19.5196 247.342 11.7742C251.307 15.5295 252.522 21.408 250.348 26.4341C253.998 22.4467 254.813 16.596 252.366 11.7267C255.551 13.6644 257.847 16.9196 258.484 20.7367C259.273 16.0717 257.471 11.2167 253.555 8.19815Z" fill="#008755"/>
<path fill-rule="evenodd" clip-rule="evenodd" d="M258.284 37.9904C241.752 20.3827 232.344 33.9564 232.344 33.9564C232.344 33.9564 240.407 25.9798 255.731 42.9135C262.616 50.5253 268.767 53.4991 273.725 53.448C277.531 53.4086 281.029 51.6268 283.489 47.7747C283.886 47.1528 284.124 46.5084 284.124 46.5084C279.693 51.7765 273.854 54.5719 258.284 37.9904Z" fill="#008755"/>
</svg>
