<svg width="22" height="22" viewBox="0 0 22 22" fill="none" xmlns="http://www.w3.org/2000/svg">
<path d="M6 0C6.27579 1.51952e-07 6.51801 0.094885 6.7002 0.192383C6.88829 0.293056 7.06567 0.425469 7.22656 0.5625C7.54769 0.836007 7.87228 1.19048 8.16602 1.53711C8.41975 1.86015 9.42481 3.111 9.53809 3.22754C9.82651 3.52458 9.81939 3.99947 9.52246 4.28809C9.37426 4.43199 9.18169 4.50246 8.99023 4.5H7V14.75H17.25V12.7598C17.2475 12.5683 17.318 12.3757 17.4619 12.2275C17.7505 11.9306 18.2254 11.9235 18.5225 12.2119C18.639 12.3252 19.8899 13.3302 20.2129 13.584C20.5595 13.8777 20.914 14.2023 21.1875 14.5234C21.3245 14.6843 21.4569 14.8617 21.5576 15.0498C21.6551 15.232 21.75 15.4742 21.75 15.75C21.75 16.0258 21.6551 16.268 21.5576 16.4502C21.4569 16.6383 21.3245 16.8157 21.1875 16.9766C20.914 17.2977 20.5595 17.6223 20.2129 17.916C19.8898 18.1698 18.639 19.1748 18.5225 19.2881C18.2254 19.5765 17.7505 19.5694 17.4619 19.2725C17.318 19.1243 17.2475 18.9317 17.25 18.7402V16.75H7V20.75C7 21.3023 6.55228 21.75 6 21.75C5.44771 21.75 5 21.3023 5 20.75V16.75H1C0.447716 16.75 1.03082e-06 16.3023 0 15.75C0 15.1977 0.447716 14.75 1 14.75H5V4.5H3.00977C2.81831 4.50246 2.62574 4.43199 2.47754 4.28809C2.18061 3.99948 2.17349 3.52458 2.46191 3.22754C2.57519 3.111 3.58025 1.86015 3.83398 1.53711C4.12771 1.19048 4.45231 0.836007 4.77344 0.5625C4.93433 0.425468 5.11171 0.293058 5.2998 0.192383C5.48199 0.0948849 5.72421 1.20552e-08 6 0Z" fill="#008755"/>
</svg>
