<svg width="24" height="24" viewBox="0 0 24 24" fill="none" xmlns="http://www.w3.org/2000/svg">
<path d="M8.25 12C8.25 9.92893 9.92893 8.25 12 8.25C14.0711 8.25 15.75 9.92893 15.75 12C15.75 14.0711 14.0711 15.75 12 15.75C9.92893 15.75 8.25 14.0711 8.25 12Z" fill="#008755"/>
<path fill-rule="evenodd" clip-rule="evenodd" d="M11 2.55344C6.5584 3.02457 3.03052 6.55653 2.56568 11H1.5C0.947715 11 0.5 11.4477 0.5 12C0.5 12.5523 0.947715 13 1.5 13H2.56568C3.03052 17.4435 6.5584 20.9754 11 21.4466V22.5C11 23.0523 11.4477 23.5 12 23.5C12.5523 23.5 13 23.0523 13 22.5V21.4494C17.4545 20.9899 20.9959 17.4526 21.4617 13H22.5C23.0523 13 23.5 12.5523 23.5 12C23.5 11.4477 23.0523 11 22.5 11H21.4617C20.9959 6.54742 17.4545 3.01008 13 2.55058V1.5C13 0.947715 12.5523 0.5 12 0.5C11.4477 0.5 11 0.947715 11 1.5V2.55344ZM19.5121 11.8441C19.4291 7.77393 16.1037 4.5 12.0137 4.5C7.87154 4.5 4.51367 7.85786 4.51367 12C4.51367 16.1421 7.87154 19.5 12.0137 19.5C16.1037 19.5 19.4291 16.2261 19.5121 12.1559C19.5041 12.1051 19.5 12.053 19.5 12C19.5 11.947 19.5041 11.8949 19.5121 11.8441Z" fill="#008755"/>
</svg>
