<svg width="22" height="22" viewBox="0 0 22 22" fill="none" xmlns="http://www.w3.org/2000/svg">
<path fill-rule="evenodd" clip-rule="evenodd" d="M10.75 0C16.6871 0 21.5 4.81294 21.5 10.75C21.5 16.6871 16.6871 21.5 10.75 21.5C4.81294 21.5 0 16.6871 0 10.75C0 4.81294 4.81294 0 10.75 0ZM10.7545 13.75C10.1957 13.75 9.75 14.1977 9.75 14.75C9.75 15.3023 10.1957 15.75 10.7455 15.75C11.3043 15.75 11.75 15.3023 11.75 14.75C11.75 14.1977 11.3043 13.75 10.7545 13.75ZM10.75 5.75C10.1977 5.75 9.75 6.19772 9.75 6.75V10.75C9.75 11.3023 10.1977 11.75 10.75 11.75C11.3023 11.75 11.75 11.3023 11.75 10.75V6.75C11.75 6.19772 11.3023 5.75 10.75 5.75Z" fill="#008755"/>
</svg>
