<svg width="24" height="24" viewBox="0 0 24 24" fill="none" xmlns="http://www.w3.org/2000/svg">
<g opacity="0.9">
<path d="M8.48709 2.39137C9.98525 1.69829 10.9543 1.25 12 1.25C13.0457 1.25 14.0147 1.69829 15.5129 2.39137L17.4361 3.28038C18.6983 3.86375 19.7228 4.33731 20.425 4.7951C21.1276 5.25313 21.75 5.84942 21.75 6.75C21.75 7.65058 21.1276 8.24687 20.425 8.7049C19.7228 9.16269 18.6983 9.63625 17.4361 10.2196L15.5129 11.1086C14.0147 11.8017 13.0457 12.25 12 12.25C10.9543 12.25 9.98524 11.8017 8.48707 11.1086L6.56388 10.2196C5.30174 9.63625 4.27718 9.16269 3.57495 8.7049C2.87237 8.24687 2.25 7.65058 2.25 6.75C2.25 5.84942 2.87237 5.25313 3.57495 4.7951C4.27718 4.33731 5.30174 3.86375 6.56388 3.28038L8.48709 2.39137Z" fill="#008755"/>
<path d="M4.59541 15.3926C4.93089 15.8246 4.8614 16.4538 4.4402 16.7979C4.29438 16.917 4.23479 16.9964 4.21238 17.0346C4.19921 17.0571 4.19963 17.0622 4.19992 17.0657L4.2 17.0672C4.2 17.0742 4.20055 17.0756 4.20099 17.0767C4.20207 17.0798 4.20941 17.0995 4.23715 17.1364C4.29989 17.2199 4.43529 17.3512 4.71204 17.5336C5.27828 17.9069 6.15898 18.3213 7.46898 18.9335L9.13118 19.7103C10.8225 20.5007 11.4045 20.7495 12 20.7495C12.5955 20.7495 13.1775 20.5007 14.8688 19.7103L16.531 18.9335C17.841 18.3213 18.7217 17.9068 19.288 17.5336C19.5647 17.3512 19.7001 17.2199 19.7629 17.1364C19.7906 17.0995 19.7978 17.0802 19.7989 17.0771C19.7993 17.076 19.8 17.0742 19.8 17.0672L19.8001 17.0657C19.8004 17.0622 19.8008 17.0571 19.7876 17.0346C19.7652 16.9964 19.7056 16.917 19.5598 16.7979C19.1386 16.4538 19.0691 15.8246 19.4046 15.3926C19.7401 14.9606 20.3535 14.8894 20.7747 15.2335C21.2978 15.6608 21.75 16.2484 21.75 17.0672C21.75 18.1017 21.0384 18.7572 20.3422 19.2162C19.6427 19.6772 18.6306 20.1502 17.4138 20.7187L15.4908 21.6175C14.0619 22.2862 13.0718 22.7495 12 22.7495C10.9283 22.7495 9.93811 22.2862 8.50926 21.6175L6.58625 20.7188C5.3695 20.1502 4.35731 19.6772 3.65782 19.2162C2.96157 18.7572 2.25 18.1017 2.25 17.0672C2.25 16.2484 2.70221 15.6608 3.22531 15.2335C3.64651 14.8894 4.25992 14.9606 4.59541 15.3926Z" fill="#008755"/>
<path d="M4.4402 11.669C4.8614 11.3249 4.93089 10.6957 4.59541 10.2637C4.25992 9.83174 3.64651 9.76047 3.22531 10.1045C2.70221 10.5319 2.25 11.1195 2.25 11.9383C2.25 12.9728 2.96157 13.6283 3.65782 14.0872C4.35731 14.5483 5.3695 15.0213 6.58625 15.5899L8.50921 16.4886C9.93809 17.1573 10.9282 17.6206 12 17.6206C13.0718 17.6206 14.0619 17.1573 15.4908 16.4886L17.4138 15.5899C18.6305 15.0213 19.6427 14.5483 20.3422 14.0872C21.0384 13.6283 21.75 12.9728 21.75 11.9383C21.75 11.1195 21.2978 10.5319 20.7747 10.1045C20.3535 9.76047 19.7401 9.83174 19.4046 10.2637C19.0691 10.6957 19.1386 11.3249 19.5598 11.669C19.7056 11.7881 19.7652 11.8675 19.7876 11.9057C19.8008 11.9281 19.8004 11.9332 19.8001 11.9368L19.8 11.9383C19.8 11.9453 19.7993 11.9471 19.7989 11.9482C19.7978 11.9513 19.7906 11.9706 19.7629 12.0075C19.7001 12.091 19.5647 12.2223 19.288 12.4047C18.7217 12.7779 17.841 13.1923 16.531 13.8046L14.8688 14.5814C13.1775 15.3718 12.5955 15.6206 12 15.6206C11.4045 15.6206 10.8225 15.3718 9.13118 14.5814L7.46898 13.8046C6.15898 13.1923 5.27828 12.7779 4.71204 12.4047C4.43529 12.2223 4.29989 12.091 4.23715 12.0075C4.20941 11.9706 4.20207 11.9509 4.20099 11.9478C4.20055 11.9467 4.2 11.9453 4.2 11.9383L4.19992 11.9368C4.19963 11.9332 4.19921 11.9281 4.21238 11.9057C4.23479 11.8675 4.29438 11.7881 4.4402 11.669Z" fill="#008755"/>
</g>
</svg>
