<svg width="222" height="202" viewBox="0 0 222 202" fill="none" xmlns="http://www.w3.org/2000/svg">
<path d="M71.3901 193.747C70.613 194.226 69.5059 193.971 69.1127 193.054C68.8983 192.557 69.0344 192.786 68.9952 182.461H72.1766V181.272H68.9952V176.424H68.1883C67.6012 179.417 66.8277 181.762 63.7228 181.762V182.461H66.1791C66.2313 192.612 66.0561 192.747 66.345 193.807C66.6861 195.039 67.5509 195.764 68.9542 195.764C70.7266 195.764 71.9884 194.998 72.773 193.649L72.0723 193.172C71.8784 193.405 71.6492 193.596 71.3901 193.747ZM46.0733 175.969C47.1635 178.016 50.4679 176.031 48.6974 174.422C47.3779 173.304 45.406 174.62 46.0733 175.969ZM54.1078 183.808C54.1078 181.833 58.2527 180.476 60.752 184.535L61.7826 183.609C60.8284 182.356 59.7232 181.331 58.1744 181.082C54.4265 180.474 52.0074 182.528 52.0074 184.945C52.0074 187.798 54.6091 188.779 57.1978 189.977C61.6764 192.035 59.1063 195.585 55.8168 194.635C54.5588 194.262 53.6344 193.177 52.8665 192.092L51.7148 193.134C52.4286 194.07 53.2747 194.828 54.3519 195.279C56.2436 196.098 59.4082 195.915 61.0297 194.528C62.5523 193.233 63.091 190.491 61.08 188.758C58.8677 186.794 54.1078 186.363 54.1078 183.808ZM81.3331 180.983C79.6893 180.983 78.2039 182.597 77.2758 183.954V181.272H74.4746V195.458H77.2758V185.633C77.5945 185.115 78.012 184.494 78.4313 184.052C79.1936 183.268 79.7247 183.275 80.6268 183.749C81.5605 184.261 82.6154 184.116 83.0981 183.721C83.687 183.238 83.7262 182.14 82.8856 181.492C82.4346 181.139 81.8922 180.983 81.3331 180.983ZM24.9311 174.424C24.2658 175.021 24.3198 175.88 24.9311 176.42C26.4314 177.731 28.7201 175.766 27.2049 174.424C26.6159 173.91 25.6244 173.835 24.9311 174.424ZM33.7354 183.862V181.272H30.9249V195.458H33.7354V184.945C36.7341 182.051 39.9863 182.162 39.9863 185.752V195.458H42.8117V185.275C42.8117 184.086 42.4017 183.009 41.7625 182.237C39.6956 179.74 36.0464 181.275 33.7354 183.862ZM10.463 191.181H10.3176L3.15719 177.06H3.05176e-05V195.458H1.36055V180.494H1.57302L9.20685 195.458H9.84052L17.383 180.388H17.4874V195.458H20.5924V177.06H17.4874M46.1813 181.792V195.458H48.9807V180.983H48.1606M24.6888 181.792V195.458H27.4882V180.983H26.67M193.999 174.812V195.458H196.812V174.011H196.006M206.423 193.747C205.629 194.226 204.526 193.964 204.143 193.054C203.927 192.562 204.063 192.823 204.024 182.461H207.209V181.272H204.024V176.424H203.219C202.634 179.449 201.846 181.762 198.752 181.762V182.461H201.212C201.264 192.629 201.091 192.734 201.374 193.807C201.586 194.573 202.01 195.196 202.749 195.525C203.618 195.922 205.237 195.839 206.296 195.194C206.922 194.819 207.424 194.303 207.804 193.649L207.101 193.172C206.907 193.405 206.682 193.596 206.423 193.747ZM188.976 182.012C187.508 180.811 184.582 180.811 182.862 181.24C178.232 182.379 178.851 185.961 180.813 185.961C181.889 185.961 182.215 185.139 182.215 184.073C182.215 183.54 182.312 183.003 182.658 182.595C183.309 181.816 184.813 181.799 185.668 182.099C186.434 182.369 186.865 182.992 187.087 183.763C187.335 184.66 187.28 186.47 187.275 186.281C185.221 186.794 183.41 187.277 181.615 188.233C175.347 191.597 180.519 199.033 186.291 194.295C186.61 194.036 186.939 193.774 187.275 193.518V195.458H190.102C190.018 184.421 190.546 183.301 188.976 182.012ZM187.275 192.486C186.485 193.078 185.752 193.643 184.813 193.921C182.468 194.622 180.998 192.105 181.857 190.519C182.742 188.878 185.51 187.767 187.275 187.191V192.486ZM221.103 183.605C219.68 179.55 215.194 180.634 212.318 183.862V174.011H211.515L209.507 174.812V195.458H212.318V184.945C215.27 182.079 218.569 182.135 218.569 185.752V195.458H221.383C221.299 185.199 221.586 184.962 221.103 183.605ZM109.794 183.195C105.308 187.782 108.182 195.764 115.177 195.764C121.91 195.764 125.112 187.34 120.539 183.009C117.745 180.379 112.743 180.165 109.794 183.195ZM119.219 191.457C118.731 193.16 117.475 194.722 115.704 194.722C110.622 194.722 109.103 184.936 113.115 182.448C114.517 181.579 117.083 182.019 118.373 184.192C119.519 186.13 119.761 189.569 119.219 191.457ZM92.5994 191.524L87.12 181.287H83.9107L91.1736 194.797C90.0516 197.303 89.6398 198.539 88.7303 199.21C88.2737 199.547 87.612 199.495 87.3045 199.365C86.8554 199.178 86.8553 199.096 86.3838 198.914C85.3159 198.515 84.0001 199.176 84.0001 200.362C84.0001 202.576 88.9893 203.213 91.3339 197.945L98.5726 181.287H97.0667L92.5994 191.524ZM135.281 174.715C133.654 173.666 130.582 173.571 128.635 175.639C126.72 177.667 127.144 180.04 127.09 181.272H124.121V182.461H127.09V195.458H129.917V182.461H133.709V181.272H129.917C129.948 178.586 129.673 177.14 130.467 175.936C130.77 175.461 131.275 175.047 131.872 175.047C134.092 175.047 132.779 177.759 134.858 177.759C136.526 177.759 136.876 175.733 135.281 174.715ZM175.526 191.425C174.894 192.243 173.966 192.92 172.82 193.311C168.908 194.698 166.047 191.392 166.047 186.965H176.627C176.627 181.132 168.99 178.914 165.251 183.225C161.073 188.097 163.939 195.764 170.287 195.764C173.235 195.764 176.225 193.356 177.009 190.491L176.204 190.137C176.074 190.575 175.846 191.006 175.526 191.425ZM166.422 184.317C168.121 180.357 173.099 182.002 173.099 185.83L166.06 185.815C166.103 185.277 166.222 184.779 166.422 184.317ZM156.943 185.446H147.697V177.06H144.607V195.458H147.697V186.637H156.943V195.458H160.036V177.06H156.943" fill="white"/>
<path fill-rule="evenodd" clip-rule="evenodd" d="M163.043 53.021C137.791 56.6609 82.7812 104.132 82.7812 104.132H105.256C119.545 88.0703 140.911 70.9576 152.231 64.1195C161.293 58.6495 167.765 58.3811 167.765 58.3811C181.905 57.0709 193.988 68.7379 192.419 83.5787C194.271 66.0541 185.545 49.7819 163.043 53.021Z" fill="white"/>
<path fill-rule="evenodd" clip-rule="evenodd" d="M58.2135 53.021C35.7108 49.7819 26.9811 66.0541 28.8393 83.5787C27.2551 68.7118 39.4197 57.0765 53.4908 58.3811C53.4908 58.3811 59.9635 58.6495 69.025 64.1195C79.4861 70.4394 101.096 87.3789 116 104.132H138.473C138.473 104.132 83.4651 56.6609 58.2135 53.021Z" fill="white"/>
<path d="M109.522 156.704H99.5305C99.5547 156.518 100.084 153.851 100.084 151.473C100.084 139.591 91.1922 134.69 82.4979 140.836C76.2656 145.231 74.9722 149.484 71.1758 156.704H71.0173V144.882H67.9142V156.704H58.8677V155.522C58.8677 143.026 49.8268 138.59 42.0886 138.59H30.1682V141.23C31.0367 141.164 41.1735 141.136 41.6841 141.136C56.594 141.136 55.5018 156.516 55.5652 156.704H17.3215V136.798C16.412 136.689 14.7999 136.617 14.0954 136.617C8.45014 136.617 0.0987701 140.678 0.0987701 149.398C0.0987701 155.407 4.62204 158.996 10.3549 158.996H11.3408C11.5141 158.81 13.6518 156.518 13.4785 156.704H11.2122C2.21596 156.704 1.23564 146.023 7.11384 141.399C9.21613 139.748 11.6725 139.165 13.1355 139.165H14.2165V158.996H112.629V123.513H109.522V156.704ZM96.4069 156.307L96.31 156.704H74.1503L74.2938 156.065C76.2283 147.43 83.987 140.732 89.3751 140.732C91.1102 140.732 96.7759 141.546 96.7759 152.028C96.7759 152.684 96.7517 154.928 96.4069 156.307Z" fill="white"/>
<path d="M15.3143 131.695C16.6174 131.695 17.6737 130.638 17.6737 129.335C17.6737 128.032 16.6174 126.976 15.3143 126.976C14.0112 126.976 12.9548 128.032 12.9548 129.335C12.9548 130.638 14.0112 131.695 15.3143 131.695Z" fill="white"/>
<path d="M122.426 123.515H125.53V158.996H122.426V123.515Z" fill="white"/>
<path d="M149.132 131.715C150.435 131.715 151.491 130.659 151.491 129.356C151.491 128.053 150.435 126.997 149.132 126.997C147.829 126.997 146.772 128.053 146.772 129.356C146.772 130.659 147.829 131.715 149.132 131.715Z" fill="white"/>
<path d="M8.25635 131.695C9.55945 131.695 10.6158 130.638 10.6158 129.335C10.6158 128.032 9.55945 126.976 8.25635 126.976C6.95324 126.976 5.89687 128.032 5.89687 129.335C5.89687 130.638 6.95324 131.695 8.25635 131.695Z" fill="white"/>
<path d="M196.469 131.717C197.773 131.717 198.83 130.66 198.83 129.356C198.83 128.052 197.773 126.995 196.469 126.995C195.165 126.995 194.107 128.052 194.107 129.356C194.107 130.66 195.165 131.717 196.469 131.717Z" fill="white"/>
<path d="M219.389 137.322C211.309 137.322 204.984 142.827 204.984 149.855C204.984 156.184 210.53 159.42 216.002 158.967C216.185 158.779 218.388 156.516 218.205 156.704H216.15C212.238 156.704 208.29 154.477 208.29 149.503C208.29 145.051 212.407 140.072 217.92 140.072H218.444V159.468C218.444 163.183 217.749 166.621 212.709 166.621C212.275 166.621 211.712 166.562 211.114 166.459L210.722 168.83C211.468 168.977 212.269 169.063 213.518 169.063C215.935 169.063 221.545 168.256 221.545 160.784V137.502C220.682 137.381 219.989 137.322 219.389 137.322ZM194.92 160.937C194.92 165.007 193.284 166.666 189.286 166.666C188.865 166.666 188.233 166.593 187.745 166.509L187.355 168.996C194.922 170.088 198.021 166.729 198.021 161.895V139.953H194.92V160.937ZM168.664 160.937C168.664 165.007 167.029 166.666 163.03 166.666C162.608 166.666 161.982 166.593 161.486 166.509L161.097 168.996C168.677 170.088 171.761 166.718 171.761 161.895V139.953H168.664V160.937Z" fill="white"/>
<path d="M156.188 131.715C157.491 131.715 158.547 130.659 158.547 129.356C158.547 128.053 157.491 126.997 156.188 126.997C154.885 126.997 153.828 128.053 153.828 129.356C153.828 130.659 154.885 131.715 156.188 131.715Z" fill="white"/>
<path d="M181.259 123.515H184.36V158.997H181.259V123.515ZM140.939 149.652C140.939 154.976 145.348 158.997 151.191 158.997H158.16V136.798C148.03 135.391 140.939 141.904 140.939 149.652ZM155.057 156.704H152.103C140.367 156.704 142.568 139.165 153.925 139.165H155.057V156.704ZM56.4747 68.259L49.7429 74.9964L43.0074 68.259L35.3344 75.9246L43.0074 83.5901L49.7429 76.8546L56.4747 83.5901L64.1439 75.9246M127.377 10.038C134.339 10.4369 141.066 13.4822 145.958 18.8553C140.279 5.61914 125.326 -0.730582 112.008 3.93433C111.328 1.44625 110.795 0 110.795 0C110.795 0 110.253 1.44625 109.576 3.93433C96.2131 -0.749219 81.2641 5.67878 75.6301 18.8553C80.5168 13.4822 87.2486 10.4369 94.2077 10.038C86.1266 16.2703 82.306 26.3252 83.9628 36.1116C85.2917 28.174 90.0647 21.4049 96.6809 17.3755C91.6488 27.4024 93.1883 39.511 100.88 47.9593C96.3603 37.5075 98.8857 25.2833 107.133 17.4743C106.944 19.4983 106.831 21.6304 106.831 23.8259C106.831 36.9894 110.795 47.6537 110.795 47.6537C110.821 47.4561 115.97 33.5807 114.457 17.4743C122.7 25.2833 125.228 37.5075 120.706 47.9593C128.297 39.6676 129.991 27.5012 124.903 17.3755C131.527 21.4049 136.3 28.174 137.625 36.1116C139.267 26.4109 135.519 16.3151 127.377 10.038Z" fill="white"/>
<path fill-rule="evenodd" clip-rule="evenodd" d="M137.21 71.9904C102.831 35.3756 83.2676 63.6018 83.2676 63.6018C83.2676 63.6018 100.036 47.0146 131.902 82.2279C146.219 98.0565 159.01 104.24 169.32 104.134C177.233 104.052 184.507 100.347 189.623 92.3367C190.449 91.0433 190.943 89.7033 190.943 89.7033C181.73 100.658 169.588 106.471 137.21 71.9904Z" fill="white"/>
</svg>
