<svg width="24" height="24" viewBox="0 0 24 24" fill="none" xmlns="http://www.w3.org/2000/svg">
<path fill-rule="evenodd" clip-rule="evenodd" d="M12.0001 1.25C16.5678 1.25 20.275 4.94131 20.275 9.5C20.2751 10.5604 20.3462 11.3606 20.8339 12.08C20.9017 12.1785 20.9916 12.3019 21.0899 12.4368C21.2606 12.6711 21.4565 12.9399 21.6051 13.1727C21.8673 13.5836 22.1235 14.0791 22.2116 14.6565C22.499 16.5402 21.1743 17.7598 19.8551 18.3063C18.8724 18.7134 17.8105 19.0344 16.7029 19.2693C16.1286 21.2896 14.2292 22.7499 11.9991 22.7499C9.76891 22.7499 7.86932 21.2894 7.29524 19.2689C6.18838 19.034 5.12718 18.7132 4.14507 18.3063C2.82585 17.7598 1.5012 16.5402 1.78855 14.6565C1.87663 14.0791 2.13283 13.5836 2.39507 13.1727C2.54365 12.9399 2.73953 12.6711 2.91027 12.4368C3.00857 12.3019 3.09854 12.1785 3.16634 12.0799C3.65396 11.3606 3.72509 10.5603 3.72518 9.49994C3.72522 4.94128 7.43233 1.25 12.0001 1.25ZM14.963 19.5634C13.0145 19.8123 10.9836 19.8122 9.03505 19.5631C9.60656 20.5618 10.7126 21.2499 11.9991 21.2499C13.2855 21.2499 14.3915 20.562 14.963 19.5634ZM12.0001 2.75C8.25605 2.75 5.22518 5.77442 5.22518 9.5C5.22509 10.5824 5.1717 11.7967 4.40616 12.9242C4.27811 13.1106 4.16777 13.2605 4.06325 13.4025C3.92453 13.591 3.79706 13.7642 3.65951 13.9797C3.44627 14.3138 3.31401 14.6034 3.2714 14.8827C3.13345 15.7871 3.71026 16.5026 4.71915 16.9205C8.99812 18.6932 15.002 18.6932 19.281 16.9206C20.2899 16.5026 20.8667 15.7871 20.7287 14.8827C20.6861 14.6034 20.5539 14.3138 20.3406 13.9797C20.2031 13.7642 20.0756 13.591 19.9369 13.4025C19.8327 13.261 19.7223 13.1108 19.5964 12.9277C18.8285 11.7967 18.7751 10.5825 18.775 9.50006C18.775 5.77448 15.7441 2.75 12.0001 2.75Z" fill="#161616"/>
</svg>
