<svg width="24" height="24" viewBox="0 0 24 24" fill="none" xmlns="http://www.w3.org/2000/svg">
<path d="M7.13841 20.7031C8.00786 20.794 9.13899 20.7953 10.7476 20.7953H14.9079C15.4456 20.7953 15.8816 21.2328 15.8816 21.7725C15.8816 22.3123 15.4456 22.7498 14.9079 22.7498H10.6927C9.15159 22.7498 7.91879 22.7498 6.93654 22.6471C5.92712 22.5415 5.0659 22.3184 4.32113 21.7917C3.93077 21.5157 3.58222 21.1869 3.28704 20.8144C2.71721 20.0954 2.47396 19.2575 2.35985 18.2841C2.24996 17.3468 2.24998 16.1741 2.25 14.726V12.1426C2.25 10.7243 2.25 9.6116 2.30919 8.71089C2.36944 7.79404 2.49398 7.02933 2.77509 6.31737C3.61848 4.18131 5.39221 2.51857 7.61221 1.73639C8.99465 1.24932 10.6813 1.24953 13.5209 1.24989L13.9605 1.24986C15.5155 1.24932 16.548 1.24896 17.4068 1.55154C18.7834 2.03655 19.8918 3.07082 20.4206 4.41013C20.6039 4.87429 20.6795 5.35996 20.7153 5.90459C20.75 6.43317 20.75 7.08065 20.75 7.8798V10.0453C20.75 10.5851 20.3141 11.0226 19.7763 11.0226C19.2386 11.0226 18.8026 10.5851 18.8026 10.0453V7.9131C18.8026 7.07284 18.8021 6.4899 18.7721 6.03322C18.7427 5.58528 18.6879 5.32686 18.6102 5.13021C18.3001 4.34485 17.6344 3.70321 16.7618 3.39575C16.2584 3.2184 15.5913 3.20445 13.7572 3.20445C13.4591 3.20445 13.1023 3.20562 12.7641 3.20714C12.426 3.20866 11.8726 3.21116 11.4104 3.48006C11.1057 3.65738 10.8849 3.85926 10.7582 4.07985C10.5409 4.45826 10.4166 4.89693 10.4166 5.36462C10.4166 5.50047 10.4248 5.67502 10.4325 5.84079L10.4344 5.88187C10.4417 6.03668 10.4496 6.20553 10.4531 6.37352C10.461 6.75361 10.449 7.19715 10.3343 7.6253C10.1108 8.45927 9.4594 9.11067 8.62543 9.33414C8.19728 9.44886 7.75374 9.46086 7.37365 9.45297C7.20551 9.44948 7.03693 9.44156 6.88201 9.43428C6.70441 9.42604 6.48042 9.41648 6.33328 9.41648C5.88662 9.41648 5.46642 9.52985 5.09991 9.72937C4.87246 9.85319 4.65105 10.0963 4.47811 10.3873C4.1975 10.8594 4.19732 11.498 4.19734 11.765L4.19737 14.6651C4.19737 16.1886 4.19894 17.2459 4.29387 18.0557C4.38611 18.8425 4.55555 19.2753 4.81111 19.5978C4.98891 19.8221 5.20128 20.0232 5.44274 20.194C5.80057 20.447 6.28449 20.6138 7.13841 20.7031Z" fill="#1A9366"/>
<path d="M7.577 12.3806C7.91902 12.147 8.3857 12.2348 8.61935 12.5768L9.70798 14.1703L10.7966 12.5768C11.0303 12.2348 11.4969 12.147 11.839 12.3806C12.181 12.6143 12.2688 13.0809 12.0352 13.423L10.6163 15.4999L12.0352 17.5768C12.2688 17.9188 12.181 18.3855 11.839 18.6192C11.4969 18.8528 11.0303 18.765 10.7966 18.423L9.70798 16.8295L8.61935 18.423C8.3857 18.765 7.91902 18.8528 7.577 18.6192C7.23498 18.3855 7.14713 17.9188 7.38079 17.5768L8.79967 15.4999L7.38079 13.423C7.14713 13.0809 7.23498 12.6143 7.577 12.3806Z" fill="#1A9366"/>
<path d="M14.0001 12.2499C14.4143 12.2499 14.7501 12.5857 14.7501 12.9999V16.3332C14.7501 16.7478 14.7517 16.9814 14.7743 17.1453C14.7819 17.1695 14.8113 17.2195 14.8685 17.2258C15.0409 17.2484 15.2847 17.2499 15.708 17.2499H16.5619C16.9761 17.2499 17.3119 17.5857 17.3119 17.9999C17.3119 18.4141 16.9761 18.7499 16.5619 18.7499L15.666 18.7499C15.2998 18.7499 14.9553 18.75 14.6734 18.713C14.361 18.672 14.0147 18.5739 13.7264 18.2926C13.4355 18.0088 13.3315 17.6635 13.2884 17.35C13.2499 17.0712 13.25 16.7318 13.2501 16.3762L13.2501 12.9999C13.2501 12.5857 13.5859 12.2499 14.0001 12.2499Z" fill="#1A9366"/>
<path d="M21.4788 12.9998C21.4788 12.5856 21.143 12.2498 20.7288 12.2498L19.759 12.2498C19.5873 12.2498 19.4221 12.2498 19.2821 12.2596C19.1293 12.2702 18.9515 12.2951 18.7684 12.3728C18.2821 12.579 18.0205 12.9507 17.9033 13.339C17.8077 13.6559 17.8083 14.0935 17.8086 14.3003C17.8083 14.5071 17.8077 14.8437 17.9033 15.1606C18.0205 15.5489 18.2821 15.9207 18.7684 16.1269C18.9515 16.2045 19.1293 16.2294 19.2821 16.2401C19.4221 16.2499 19.5872 16.2498 19.7589 16.2498C19.9591 16.2498 20.0915 16.2502 20.1728 16.2559C20.195 16.2628 20.2403 16.3087 20.2447 16.437C20.2505 16.5213 20.2508 16.6492 20.2507 16.7682C20.2508 16.8872 20.2505 16.9783 20.2447 17.0626C20.2402 17.2002 20.1949 17.2407 20.1728 17.2437C20.0915 17.2494 19.9799 17.2498 19.7797 17.2498H18.746C18.3318 17.2498 17.996 17.5856 17.996 17.9998C17.996 18.414 18.3318 18.7498 18.746 18.7498L19.8004 18.7498C19.9721 18.7498 20.1373 18.7499 20.2774 18.7401C20.4302 18.7294 20.6079 18.7045 20.791 18.6269C21.2774 18.4207 21.5389 18.0489 21.6561 17.6606C21.7517 17.3437 21.7511 17.0071 21.7508 16.8003C21.7511 16.5935 21.7517 16.1559 21.6561 15.839C21.5389 15.4507 21.2774 15.079 20.791 14.8728C20.6079 14.7951 20.4302 14.7702 20.2774 14.7596C20.1373 14.7498 19.9722 14.7498 19.8005 14.7498C19.6003 14.7498 19.4679 14.7494 19.3866 14.7437C19.3397 14.7413 19.3191 14.622 19.3147 14.5626C19.3089 14.4783 19.3087 14.3872 19.3087 14.2682C19.3087 14.1492 19.3089 14.0213 19.3147 13.937C19.3192 13.8055 19.3645 13.7615 19.3866 13.7559C19.4679 13.7502 19.5796 13.7498 19.7797 13.7498H20.7288C21.143 13.7498 21.4788 13.414 21.4788 12.9998Z" fill="#1A9366"/>
</svg>
